<svg xmlns="http://www.w3.org/2000/svg" width="960" height="500"><defs><style type="text/css"><![CDATA[ 
.beta {
  fill:rgb(240, 240, 75);
}
.current {
  fill: #5fa04e;
}
.active {
  fill: #229ad6;
}
.maintenance {
  fill: #b1bcc2;
}
.unstable,.alpha {
  fill: #e99c40;
}
.bar-join {
  fill: #ffffff;
}
.bar-join.unstable, .bar-join.current {
  display: none;
}
.tick text {
  font: 16px sans-serif;
  fill: #89a19d;
}
.axis--y .tick text {
  text-anchor: end;
}
.label,.label-beta {
  fill: #fff;
  font: 20px sans-serif;
  font-weight: 100;
  text-anchor: start;
  dominant-baseline: middle;
  text-transform: uppercase;
}
.label-beta{
  fill: #000;
} ]]></style></defs><g id="bar-container" transform="translate(110, 30)"><g class="axis axis--x" fill="none" font-size="10" font-family="sans-serif" text-anchor="middle"><g class="tick" opacity="1" transform="translate(40.414607358594175,0)"><line stroke="#89a19d" y2="440" x1="0.5" x2="0.5"></line><text fill="#000" y="0" x="0.5" dy="-10">Oct29</text></g><g class="tick" opacity="1" transform="translate(164.75425590334982,0)"><line stroke="#89a19d" y2="440" x1="0.5" x2="0.5" stroke-dasharray="2,2"></line><text fill="#000" y="0" x="0.5" dy="-10">Jan30</text></g><g class="tick" opacity="1" transform="translate(286.279516749039,0)"><line stroke="#89a19d" y2="440" x1="0.5" x2="0.5"></line><text fill="#000" y="0" x="0.5" dy="-10">Apr30</text></g><g class="tick" opacity="1" transform="translate(409.2119714442614,0)"><line stroke="#89a19d" y2="440" x1="0.5" x2="0.5" stroke-dasharray="2,2"></line><text fill="#000" y="0" x="0.5" dy="-10">Jul30</text></g><g class="tick" opacity="1" transform="translate(533.4953322350357,0)"><line stroke="#89a19d" y2="440" x1="0.5" x2="0.5"></line><text fill="#000" y="0" x="0.5" dy="-10">Oct30</text></g><g class="tick" opacity="1" transform="translate(657.8349807797913,0)"><line stroke="#89a19d" y2="440" x1="0.5" x2="0.5" stroke-dasharray="2,2"></line><text fill="#000" y="0" x="0.5" dy="-10">Jan31</text></g><g class="tick" opacity="1" transform="translate(779.3602416254805,0)"><line stroke="#89a19d" y2="440" x1="0.5" x2="0.5"></line><text fill="#000" y="0" x="0.5" dy="-10">Apr31</text></g></g><g class="axis axis--y" fill="none" font-size="10" font-family="sans-serif" text-anchor="start"><g class="tick" opacity="1" transform="translate(0,39.17808219178082)"><line stroke="#e1e7e7" x2="820" y1="0.5" y2="0.5"></line><text fill="#000" x="0" y="0.5" dy="0.32em" dx="-10">Main</text></g><g class="tick" opacity="1" transform="translate(0,99.45205479452054)"><line stroke="#e1e7e7" x2="820" y1="0.5" y2="0.5"></line><text fill="#000" x="0" y="0.5" dy="0.32em" dx="-10">Node.js 28</text></g><g class="tick" opacity="1" transform="translate(0,159.72602739726025)"><line stroke="#e1e7e7" x2="820" y1="0.5" y2="0.5"></line><text fill="#000" x="0" y="0.5" dy="0.32em" dx="-10">Node.js 32</text></g><g class="tick" opacity="1" transform="translate(0,220)"><line stroke="#e1e7e7" x2="820" y1="0.5" y2="0.5"></line><text fill="#000" x="0" y="0.5" dy="0.32em" dx="-10">Node.js 33</text></g><g class="tick" opacity="1" transform="translate(0,280.2739726027397)"><line stroke="#e1e7e7" x2="820" y1="0.5" y2="0.5"></line><text fill="#000" x="0" y="0.5" dy="0.32em" dx="-10">Node.js 34</text></g><g class="tick" opacity="1" transform="translate(0,340.54794520547944)"><line stroke="#e1e7e7" x2="820" y1="0.5" y2="0.5"></line><text fill="#000" x="0" y="0.5" dy="0.32em" dx="-10">Node.js 35</text></g><g class="tick" opacity="1" transform="translate(0,400.82191780821915)"><line stroke="#e1e7e7" x2="820" y1="0.5" y2="0.5"></line><text fill="#000" x="0" y="0.5" dy="0.32em" dx="-10">Node.js 36</text></g><line y1="440" y2="440" x2="820" stroke="#89a19d"></line></g><g><rect class="bar unstable" x="0" y="18.082191780821915" width="820" height="42.1917808219178"></rect><rect class="bar-join unstable" x="-1" y="18.082191780821915" width="2" height="42.1917808219178" style="opacity: 0;"></rect><text class="label" x="15" y="41.17808219178082" style="opacity: 1;">unstable</text></g><g><rect class="bar maintenance" x="66.19439868204283" y="78.35616438356163" width="738.9456342668864" height="42.1917808219178"></rect><rect class="bar-join maintenance" x="65.19439868204283" y="78.35616438356163" width="2" height="42.1917808219178" style="opacity: 1;"></rect><text class="label" x="81.19439868204283" y="101.45205479452054" style="opacity: 1;">maintenance</text></g><g><rect class="bar active" x="0" y="78.35616438356163" width="66.19439868204283" height="42.1917808219178"></rect><rect class="bar-join active" x="-1" y="78.35616438356163" width="2" height="42.1917808219178" style="opacity: 0;"></rect><text class="label" x="15" y="101.45205479452054" style="opacity: 0;">active</text></g><g><rect class="bar active" x="66.19439868204283" y="138.63013698630135" width="753.8056013179572" height="42.1917808219178"></rect><rect class="bar-join active" x="65.19439868204283" y="138.63013698630135" width="2" height="42.1917808219178" style="opacity: 1;"></rect><text class="label" x="81.19439868204283" y="161.72602739726025" style="opacity: 1;">active</text></g><g><rect class="bar current" x="0" y="138.63013698630135" width="66.19439868204283" height="42.1917808219178"></rect><rect class="bar-join current" x="-1" y="138.63013698630135" width="2" height="42.1917808219178" style="opacity: 0;"></rect><text class="label" x="15" y="161.72602739726025" style="opacity: 0;">current</text></g><g><rect class="bar maintenance" x="312.0593080724876" y="198.9041095890411" width="82.4052718286656" height="42.1917808219178"></rect><rect class="bar-join maintenance" x="311.0593080724876" y="198.9041095890411" width="2" height="42.1917808219178" style="opacity: 1;"></rect><text class="label" x="327.0593080724876" y="222" style="opacity: 0;">maintenance</text></g><g><rect class="bar current" x="66.19439868204283" y="198.9041095890411" width="245.86490939044478" height="42.1917808219178"></rect><rect class="bar-join current" x="65.19439868204283" y="198.9041095890411" width="2" height="42.1917808219178" style="opacity: 0;"></rect><text class="label" x="81.19439868204283" y="222" style="opacity: 1;">current</text></g><g><rect class="bar maintenance" x="559.2751235584843" y="259.17808219178085" width="82.4052718286656" height="42.1917808219178"></rect><rect class="bar-join maintenance" x="558.2751235584843" y="259.17808219178085" width="2" height="42.1917808219178" style="opacity: 1;"></rect><text class="label" x="574.2751235584843" y="282.2739726027397" style="opacity: 0;">maintenance</text></g><g><rect class="bar current" x="312.0593080724876" y="259.17808219178085" width="247.2158154859967" height="42.1917808219178"></rect><rect class="bar-join current" x="311.0593080724876" y="259.17808219178085" width="2" height="42.1917808219178" style="opacity: 0;"></rect><text class="label" x="327.0593080724876" y="282.2739726027397" style="opacity: 1;">current</text></g><g><rect class="bar maintenance" x="805.1400329489292" y="319.45205479452056" width="14.85996705107084" height="42.1917808219178"></rect><rect class="bar-join maintenance" x="804.1400329489292" y="319.45205479452056" width="2" height="42.1917808219178" style="opacity: 1;"></rect><text class="label" x="820.1400329489292" y="342.54794520547944" style="opacity: 0;">maintenance</text></g><g><rect class="bar current" x="559.2751235584843" y="319.45205479452056" width="245.86490939044484" height="42.1917808219178"></rect><rect class="bar-join current" x="558.2751235584843" y="319.45205479452056" width="2" height="42.1917808219178" style="opacity: 0;"></rect><text class="label" x="574.2751235584843" y="342.54794520547944" style="opacity: 1;">current</text></g><g><rect class="bar current" x="805.1400329489292" y="379.7260273972603" width="14.85996705107084" height="42.1917808219178"></rect><rect class="bar-join current" x="804.1400329489292" y="379.7260273972603" width="2" height="42.1917808219178" style="opacity: 0;"></rect><text class="label" x="820.1400329489292" y="402.82191780821915" style="opacity: 0;">current</text></g></g></svg>