<svg xmlns="http://www.w3.org/2000/svg" width="960" height="500"><defs><style type="text/css"><![CDATA[ 
.beta {
  fill:rgb(240, 240, 75);
}
.current {
  fill: #5fa04e;
}
.active {
  fill: #229ad6;
}
.maintenance {
  fill: #b1bcc2;
}
.unstable,.alpha {
  fill: #e99c40;
}
.bar-join {
  fill: #ffffff;
}
.bar-join.unstable, .bar-join.current {
  display: none;
}
.tick text {
  font: 16px sans-serif;
  fill: #89a19d;
}
.axis--y .tick text {
  text-anchor: end;
}
.label,.label-beta {
  fill: #fff;
  font: 20px sans-serif;
  font-weight: 100;
  text-anchor: start;
  dominant-baseline: middle;
  text-transform: uppercase;
}
.label-beta{
  fill: #000;
} ]]></style></defs><g id="bar-container" transform="translate(110, 30)"><g class="axis axis--x" fill="none" font-size="10" font-family="sans-serif" text-anchor="middle"><g class="tick" opacity="1" transform="translate(26.41046310913338,0)"><line stroke="#89a19d" y2="440" x1="0.5" x2="0.5"></line><text fill="#000" y="0" x="0.5" dy="-10">Jan26</text></g><g class="tick" opacity="1" transform="translate(114.5323095410059,0)"><line stroke="#89a19d" y2="440" x1="0.5" x2="0.5" stroke-dasharray="2,2"></line><text fill="#000" y="0" x="0.5" dy="-10">Jan27</text></g><g class="tick" opacity="1" transform="translate(202.65415597287844,0)"><line stroke="#89a19d" y2="440" x1="0.5" x2="0.5"></line><text fill="#000" y="0" x="0.5" dy="-10">Jan28</text></g><g class="tick" opacity="1" transform="translate(291.0174321210026,0)"><line stroke="#89a19d" y2="440" x1="0.5" x2="0.5" stroke-dasharray="2,2"></line><text fill="#000" y="0" x="0.5" dy="-10">Jan29</text></g><g class="tick" opacity="1" transform="translate(379.13927855287517,0)"><line stroke="#89a19d" y2="440" x1="0.5" x2="0.5"></line><text fill="#000" y="0" x="0.5" dy="-10">Jan30</text></g><g class="tick" opacity="1" transform="translate(467.2611249847477,0)"><line stroke="#89a19d" y2="440" x1="0.5" x2="0.5" stroke-dasharray="2,2"></line><text fill="#000" y="0" x="0.5" dy="-10">Jan31</text></g><g class="tick" opacity="1" transform="translate(555.3829714166202,0)"><line stroke="#89a19d" y2="440" x1="0.5" x2="0.5"></line><text fill="#000" y="0" x="0.5" dy="-10">Jan32</text></g><g class="tick" opacity="1" transform="translate(643.7462475647445,0)"><line stroke="#89a19d" y2="440" x1="0.5" x2="0.5" stroke-dasharray="2,2"></line><text fill="#000" y="0" x="0.5" dy="-10">Jan33</text></g><g class="tick" opacity="1" transform="translate(731.868093996617,0)"><line stroke="#89a19d" y2="440" x1="0.5" x2="0.5"></line><text fill="#000" y="0" x="0.5" dy="-10">Jan34</text></g><g class="tick" opacity="1" transform="translate(819.9899404284895,0)"><line stroke="#89a19d" y2="440" x1="0.5" x2="0.5" stroke-dasharray="2,2"></line><text fill="#000" y="0" x="0.5" dy="-10">Jan35</text></g></g><g class="axis axis--y" fill="none" font-size="10" font-family="sans-serif" text-anchor="start"><g class="tick" opacity="1" transform="translate(0,13.42723004694836)"><line stroke="#e1e7e7" x2="820" y1="0.5" y2="0.5"></line><text fill="#000" x="0" y="0.5" dy="0.32em" dx="-10">Main</text></g><g class="tick" opacity="1" transform="translate(0,34.08450704225352)"><line stroke="#e1e7e7" x2="820" y1="0.5" y2="0.5"></line><text fill="#000" x="0" y="0.5" dy="0.32em" dx="-10">Node.js 24</text></g><g class="tick" opacity="1" transform="translate(0,54.74178403755869)"><line stroke="#e1e7e7" x2="820" y1="0.5" y2="0.5"></line><text fill="#000" x="0" y="0.5" dy="0.32em" dx="-10">Node.js 25</text></g><g class="tick" opacity="1" transform="translate(0,75.39906103286384)"><line stroke="#e1e7e7" x2="820" y1="0.5" y2="0.5"></line><text fill="#000" x="0" y="0.5" dy="0.32em" dx="-10">Node.js 26</text></g><g class="tick" opacity="1" transform="translate(0,96.05633802816901)"><line stroke="#e1e7e7" x2="820" y1="0.5" y2="0.5"></line><text fill="#000" x="0" y="0.5" dy="0.32em" dx="-10">Node.js 27</text></g><g class="tick" opacity="1" transform="translate(0,116.71361502347418)"><line stroke="#e1e7e7" x2="820" y1="0.5" y2="0.5"></line><text fill="#000" x="0" y="0.5" dy="0.32em" dx="-10">Node.js 28</text></g><g class="tick" opacity="1" transform="translate(0,137.37089201877933)"><line stroke="#e1e7e7" x2="820" y1="0.5" y2="0.5"></line><text fill="#000" x="0" y="0.5" dy="0.32em" dx="-10">Node.js 29</text></g><g class="tick" opacity="1" transform="translate(0,158.0281690140845)"><line stroke="#e1e7e7" x2="820" y1="0.5" y2="0.5"></line><text fill="#000" x="0" y="0.5" dy="0.32em" dx="-10">Node.js 30</text></g><g class="tick" opacity="1" transform="translate(0,178.68544600938966)"><line stroke="#e1e7e7" x2="820" y1="0.5" y2="0.5"></line><text fill="#000" x="0" y="0.5" dy="0.32em" dx="-10">Node.js 31</text></g><g class="tick" opacity="1" transform="translate(0,199.34272300469482)"><line stroke="#e1e7e7" x2="820" y1="0.5" y2="0.5"></line><text fill="#000" x="0" y="0.5" dy="0.32em" dx="-10">Node.js 32</text></g><g class="tick" opacity="1" transform="translate(0,220)"><line stroke="#e1e7e7" x2="820" y1="0.5" y2="0.5"></line><text fill="#000" x="0" y="0.5" dy="0.32em" dx="-10">Node.js 33</text></g><g class="tick" opacity="1" transform="translate(0,240.65727699530515)"><line stroke="#e1e7e7" x2="820" y1="0.5" y2="0.5"></line><text fill="#000" x="0" y="0.5" dy="0.32em" dx="-10">Node.js 34</text></g><g class="tick" opacity="1" transform="translate(0,261.3145539906103)"><line stroke="#e1e7e7" x2="820" y1="0.5" y2="0.5"></line><text fill="#000" x="0" y="0.5" dy="0.32em" dx="-10">Node.js 35</text></g><g class="tick" opacity="1" transform="translate(0,281.97183098591546)"><line stroke="#e1e7e7" x2="820" y1="0.5" y2="0.5"></line><text fill="#000" x="0" y="0.5" dy="0.32em" dx="-10">Node.js 36</text></g><g class="tick" opacity="1" transform="translate(0,302.62910798122067)"><line stroke="#e1e7e7" x2="820" y1="0.5" y2="0.5"></line><text fill="#000" x="0" y="0.5" dy="0.32em" dx="-10">Node.js 37</text></g><g class="tick" opacity="1" transform="translate(0,323.2863849765258)"><line stroke="#e1e7e7" x2="820" y1="0.5" y2="0.5"></line><text fill="#000" x="0" y="0.5" dy="0.32em" dx="-10">Node.js 38</text></g><g class="tick" opacity="1" transform="translate(0,343.943661971831)"><line stroke="#e1e7e7" x2="820" y1="0.5" y2="0.5"></line><text fill="#000" x="0" y="0.5" dy="0.32em" dx="-10">Node.js 39</text></g><g class="tick" opacity="1" transform="translate(0,364.60093896713613)"><line stroke="#e1e7e7" x2="820" y1="0.5" y2="0.5"></line><text fill="#000" x="0" y="0.5" dy="0.32em" dx="-10">Node.js 40</text></g><g class="tick" opacity="1" transform="translate(0,385.2582159624413)"><line stroke="#e1e7e7" x2="820" y1="0.5" y2="0.5"></line><text fill="#000" x="0" y="0.5" dy="0.32em" dx="-10">Node.js 41</text></g><g class="tick" opacity="1" transform="translate(0,405.9154929577465)"><line stroke="#e1e7e7" x2="820" y1="0.5" y2="0.5"></line><text fill="#000" x="0" y="0.5" dy="0.32em" dx="-10">Node.js 42</text></g><g class="tick" opacity="1" transform="translate(0,426.57276995305165)"><line stroke="#e1e7e7" x2="820" y1="0.5" y2="0.5"></line><text fill="#000" x="0" y="0.5" dy="0.32em" dx="-10">Node.js 43</text></g><line y1="440" y2="440" x2="820" stroke="#89a19d"></line></g><g><rect class="bar unstable" x="0" y="6.197183098591552" width="820" height="14.460093896713614"></rect><rect class="bar-join unstable" x="-1" y="6.197183098591552" width="2" height="14.460093896713614" style="opacity: 0;"></rect><text class="label" x="15" y="15.42723004694836" style="opacity: 1;">unstable</text></g><g><rect class="bar maintenance" x="96.91799982614188" y="26.854460093896716" width="134.7177816684517" height="14.460093896713614"></rect><rect class="bar-join maintenance" x="95.91799982614188" y="26.854460093896716" width="2" height="14.460093896713614" style="opacity: 1;"></rect><text class="label" x="111.91799982614188" y="36.08450704225352" style="opacity: 0;">maintenance</text></g><g><rect class="bar active" x="10.72759112428301" y="26.854460093896716" width="86.19040870185887" height="14.460093896713614"></rect><rect class="bar-join active" x="9.72759112428301" y="26.854460093896716" width="2" height="14.460093896713614" style="opacity: 1;"></rect><text class="label" x="25.72759112428301" y="36.08450704225352" style="opacity: 1;">active</text></g><g><rect class="bar current" x="0" y="26.854460093896716" width="10.72759112428301" height="14.460093896713614"></rect><rect class="bar-join current" x="-1" y="26.854460093896716" width="2" height="14.460093896713614" style="opacity: 0;"></rect><text class="label" x="15" y="36.08450704225352" style="opacity: 0;">current</text></g><g><rect class="bar maintenance" x="48.14919714329737" y="47.51173708920188" width="14.72721269135404" height="14.460093896713614"></rect><rect class="bar-join maintenance" x="47.14919714329737" y="47.51173708920188" width="2" height="14.460093896713614" style="opacity: 1;"></rect><text class="label" x="63.14919714329737" y="56.74178403755869" style="opacity: 0;">maintenance</text></g><g><rect class="bar current" x="7.58900481301084" y="47.51173708920188" width="40.56019233028653" height="14.460093896713614"></rect><rect class="bar-join current" x="6.58900481301084" y="47.51173708920188" width="2" height="14.460093896713614" style="opacity: 0;"></rect><text class="label" x="22.58900481301084" y="56.74178403755869" style="opacity: 0;">current</text></g><g><rect class="bar maintenance" x="229.22148433207653" y="68.16901408450704" width="90.53614359438959" height="14.460093896713614"></rect><rect class="bar-join maintenance" x="228.22148433207653" y="68.16901408450704" width="2" height="14.460093896713614" style="opacity: 1;"></rect><text class="label" x="244.22148433207653" y="77.39906103286384" style="opacity: 0;">maintenance</text></g><g><rect class="bar active" x="96.91799982614188" y="68.16901408450704" width="132.30348450593465" height="14.460093896713614"></rect><rect class="bar-join active" x="95.91799982614188" y="68.16901408450704" width="2" height="14.460093896713614" style="opacity: 1;"></rect><text class="label" x="111.91799982614188" y="77.39906103286384" style="opacity: 1;">active</text></g><g><rect class="bar current" x="53.21922118458319" y="68.16901408450704" width="43.69877864155869" height="14.460093896713614"></rect><rect class="bar-join current" x="52.21922118458319" y="68.16901408450704" width="2" height="14.460093896713614" style="opacity: 0;"></rect><text class="label" x="68.21922118458319" y="77.39906103286384" style="opacity: 0;">current</text></g><g><rect class="bar maintenance" x="140.8582081839523" y="88.82629107981221" width="14.727212691354026" height="14.460093896713614"></rect><rect class="bar-join maintenance" x="139.8582081839523" y="88.82629107981221" width="2" height="14.460093896713614" style="opacity: 1;"></rect><text class="label" x="155.8582081839523" y="98.05633802816901" style="opacity: 0;">maintenance</text></g><g><rect class="bar current" x="96.91799982614188" y="88.82629107981221" width="43.940208357810434" height="14.460093896713614"></rect><rect class="bar-join current" x="95.91799982614188" y="88.82629107981221" width="2" height="14.460093896713614" style="opacity: 0;"></rect><text class="label" x="111.91799982614188" y="98.05633802816901" style="opacity: 0;">current</text></g><g><rect class="bar maintenance" x="361.52496883801115" y="109.48356807511738" width="132.06205478968297" height="14.460093896713614"></rect><rect class="bar-join maintenance" x="360.52496883801115" y="109.48356807511738" width="2" height="14.460093896713614" style="opacity: 1;"></rect><text class="label" x="376.52496883801115" y="118.71361502347418" style="opacity: 0;">maintenance</text></g><g><rect class="bar active" x="185.03984625801442" y="109.48356807511738" width="176.48512257999673" height="14.460093896713614"></rect><rect class="bar-join active" x="184.03984625801442" y="109.48356807511738" width="2" height="14.460093896713614" style="opacity: 1;"></rect><text class="label" x="200.03984625801442" y="118.71361502347418" style="opacity: 1;">active</text></g><g><rect class="bar current" x="140.8582081839523" y="109.48356807511738" width="44.18163807406211" height="14.460093896713614"></rect><rect class="bar-join current" x="139.8582081839523" y="109.48356807511738" width="2" height="14.460093896713614" style="opacity: 0;"></rect><text class="label" x="155.8582081839523" y="118.71361502347418" style="opacity: 0;">current</text></g><g><rect class="bar maintenance" x="229.22148433207653" y="130.14084507042253" width="14.727212691354026" height="14.460093896713614"></rect><rect class="bar-join maintenance" x="228.22148433207653" y="130.14084507042253" width="2" height="14.460093896713614" style="opacity: 1;"></rect><text class="label" x="244.22148433207653" y="139.37089201877933" style="opacity: 0;">maintenance</text></g><g><rect class="bar current" x="185.03984625801442" y="130.14084507042253" width="44.18163807406211" height="14.460093896713614"></rect><rect class="bar-join current" x="184.03984625801442" y="130.14084507042253" width="2" height="14.460093896713614" style="opacity: 0;"></rect><text class="label" x="200.03984625801442" y="139.37089201877933" style="opacity: 0;">current</text></g><g><rect class="bar maintenance" x="273.40312240613866" y="150.7981220657277" width="14.727212691353998" height="14.460093896713614"></rect><rect class="bar-join maintenance" x="272.40312240613866" y="150.7981220657277" width="2" height="14.460093896713614" style="opacity: 1;"></rect><text class="label" x="288.40312240613866" y="160.0281690140845" style="opacity: 0;">maintenance</text></g><g><rect class="bar current" x="229.22148433207653" y="150.7981220657277" width="44.181638074062136" height="14.460093896713614"></rect><rect class="bar-join current" x="228.22148433207653" y="150.7981220657277" width="2" height="14.460093896713614" style="opacity: 0;"></rect><text class="label" x="244.22148433207653" y="160.0281690140845" style="opacity: 0;">current</text></g><g><rect class="bar maintenance" x="317.34333076394904" y="171.45539906103286" width="14.727212691354055" height="14.460093896713614"></rect><rect class="bar-join maintenance" x="316.34333076394904" y="171.45539906103286" width="2" height="14.460093896713614" style="opacity: 1;"></rect><text class="label" x="332.34333076394904" y="180.68544600938966" style="opacity: 0;">maintenance</text></g><g><rect class="bar current" x="273.40312240613866" y="171.45539906103286" width="43.94020835781038" height="14.460093896713614"></rect><rect class="bar-join current" x="272.40312240613866" y="171.45539906103286" width="2" height="14.460093896713614" style="opacity: 0;"></rect><text class="label" x="288.40312240613866" y="180.68544600938966" style="opacity: 0;">current</text></g><g><rect class="bar maintenance" x="537.7686617017562" y="192.11267605633802" width="132.30348450593465" height="14.460093896713614"></rect><rect class="bar-join maintenance" x="536.7686617017562" y="192.11267605633802" width="2" height="14.460093896713614" style="opacity: 1;"></rect><text class="label" x="552.7686617017562" y="201.34272300469482" style="opacity: 0;">maintenance</text></g><g><rect class="bar active" x="361.52496883801115" y="192.11267605633802" width="176.24369286374503" height="14.460093896713614"></rect><rect class="bar-join active" x="360.52496883801115" y="192.11267605633802" width="2" height="14.460093896713614" style="opacity: 1;"></rect><text class="label" x="376.52496883801115" y="201.34272300469482" style="opacity: 1;">active</text></g><g><rect class="bar current" x="317.34333076394904" y="192.11267605633802" width="44.18163807406211" height="14.460093896713614"></rect><rect class="bar-join current" x="316.34333076394904" y="192.11267605633802" width="2" height="14.460093896713614" style="opacity: 0;"></rect><text class="label" x="332.34333076394904" y="201.34272300469482" style="opacity: 0;">current</text></g><g><rect class="bar maintenance" x="405.4651771958216" y="212.7699530516432" width="14.727212691353998" height="14.460093896713614"></rect><rect class="bar-join maintenance" x="404.4651771958216" y="212.7699530516432" width="2" height="14.460093896713614" style="opacity: 1;"></rect><text class="label" x="420.4651771958216" y="222" style="opacity: 0;">maintenance</text></g><g><rect class="bar current" x="361.52496883801115" y="212.7699530516432" width="43.940208357810434" height="14.460093896713614"></rect><rect class="bar-join current" x="360.52496883801115" y="212.7699530516432" width="2" height="14.460093896713614" style="opacity: 0;"></rect><text class="label" x="376.52496883801115" y="222" style="opacity: 0;">current</text></g><g><rect class="bar maintenance" x="449.64681526988375" y="233.42723004694835" width="14.727212691353998" height="14.460093896713614"></rect><rect class="bar-join maintenance" x="448.64681526988375" y="233.42723004694835" width="2" height="14.460093896713614" style="opacity: 1;"></rect><text class="label" x="464.64681526988375" y="242.65727699530515" style="opacity: 0;">maintenance</text></g><g><rect class="bar current" x="405.4651771958216" y="233.42723004694835" width="44.181638074062164" height="14.460093896713614"></rect><rect class="bar-join current" x="404.4651771958216" y="233.42723004694835" width="2" height="14.460093896713614" style="opacity: 0;"></rect><text class="label" x="420.4651771958216" y="242.65727699530515" style="opacity: 0;">current</text></g><g><rect class="bar maintenance" x="493.5870236276941" y="254.0845070422535" width="14.727212691354055" height="14.460093896713614"></rect><rect class="bar-join maintenance" x="492.5870236276941" y="254.0845070422535" width="2" height="14.460093896713614" style="opacity: 1;"></rect><text class="label" x="508.5870236276941" y="263.3145539906103" style="opacity: 0;">maintenance</text></g><g><rect class="bar current" x="449.64681526988375" y="254.0845070422535" width="43.94020835781038" height="14.460093896713614"></rect><rect class="bar-join current" x="448.64681526988375" y="254.0845070422535" width="2" height="14.460093896713614" style="opacity: 0;"></rect><text class="label" x="464.64681526988375" y="263.3145539906103" style="opacity: 0;">current</text></g><g><rect class="bar maintenance" x="714.253784281753" y="274.74178403755866" width="105.74621571824696" height="14.460093896713614"></rect><rect class="bar-join maintenance" x="713.253784281753" y="274.74178403755866" width="2" height="14.460093896713614" style="opacity: 1;"></rect><text class="label" x="729.253784281753" y="283.97183098591546" style="opacity: 0;">maintenance</text></g><g><rect class="bar active" x="537.7686617017562" y="274.74178403755866" width="176.48512257999687" height="14.460093896713614"></rect><rect class="bar-join active" x="536.7686617017562" y="274.74178403755866" width="2" height="14.460093896713614" style="opacity: 1;"></rect><text class="label" x="552.7686617017562" y="283.97183098591546" style="opacity: 1;">active</text></g><g><rect class="bar current" x="493.5870236276941" y="274.74178403755866" width="44.18163807406205" height="14.460093896713614"></rect><rect class="bar-join current" x="492.5870236276941" y="274.74178403755866" width="2" height="14.460093896713614" style="opacity: 0;"></rect><text class="label" x="508.5870236276941" y="283.97183098591546" style="opacity: 0;">current</text></g><g><rect class="bar maintenance" x="581.9502997758184" y="295.39906103286387" width="14.727212691353998" height="14.460093896713614"></rect><rect class="bar-join maintenance" x="580.9502997758184" y="295.39906103286387" width="2" height="14.460093896713614" style="opacity: 1;"></rect><text class="label" x="596.9502997758184" y="304.62910798122067" style="opacity: 0;">maintenance</text></g><g><rect class="bar current" x="537.7686617017562" y="295.39906103286387" width="44.18163807406222" height="14.460093896713614"></rect><rect class="bar-join current" x="536.7686617017562" y="295.39906103286387" width="2" height="14.460093896713614" style="opacity: 0;"></rect><text class="label" x="552.7686617017562" y="304.62910798122067" style="opacity: 0;">current</text></g><g><rect class="bar maintenance" x="626.1319378498804" y="316.056338028169" width="14.727212691354111" height="14.460093896713614"></rect><rect class="bar-join maintenance" x="625.1319378498804" y="316.056338028169" width="2" height="14.460093896713614" style="opacity: 1;"></rect><text class="label" x="641.1319378498804" y="325.2863849765258" style="opacity: 0;">maintenance</text></g><g><rect class="bar current" x="581.9502997758184" y="316.056338028169" width="44.18163807406199" height="14.460093896713614"></rect><rect class="bar-join current" x="580.9502997758184" y="316.056338028169" width="2" height="14.460093896713614" style="opacity: 0;"></rect><text class="label" x="596.9502997758184" y="325.2863849765258" style="opacity: 0;">current</text></g><g><rect class="bar maintenance" x="670.0721462076908" y="336.7136150234742" width="14.727212691353998" height="14.460093896713614"></rect><rect class="bar-join maintenance" x="669.0721462076908" y="336.7136150234742" width="2" height="14.460093896713614" style="opacity: 1;"></rect><text class="label" x="685.0721462076908" y="345.943661971831" style="opacity: 0;">maintenance</text></g><g><rect class="bar current" x="626.1319378498804" y="336.7136150234742" width="43.940208357810434" height="14.460093896713614"></rect><rect class="bar-join current" x="625.1319378498804" y="336.7136150234742" width="2" height="14.460093896713614" style="opacity: 0;"></rect><text class="label" x="641.1319378498804" y="345.943661971831" style="opacity: 0;">current</text></g><g><rect class="bar active" x="714.253784281753" y="357.37089201877933" width="105.74621571824696" height="14.460093896713614"></rect><rect class="bar-join active" x="713.253784281753" y="357.37089201877933" width="2" height="14.460093896713614" style="opacity: 1;"></rect><text class="label" x="729.253784281753" y="366.60093896713613" style="opacity: 1;">active</text></g><g><rect class="bar current" x="670.0721462076908" y="357.37089201877933" width="44.18163807406222" height="14.460093896713614"></rect><rect class="bar-join current" x="669.0721462076908" y="357.37089201877933" width="2" height="14.460093896713614" style="opacity: 0;"></rect><text class="label" x="685.0721462076908" y="366.60093896713613" style="opacity: 0;">current</text></g><g><rect class="bar maintenance" x="758.1939926395634" y="378.0281690140845" width="14.727212691354111" height="14.460093896713614"></rect><rect class="bar-join maintenance" x="757.1939926395634" y="378.0281690140845" width="2" height="14.460093896713614" style="opacity: 1;"></rect><text class="label" x="773.1939926395634" y="387.2582159624413" style="opacity: 0;">maintenance</text></g><g><rect class="bar current" x="714.253784281753" y="378.0281690140845" width="43.94020835781032" height="14.460093896713614"></rect><rect class="bar-join current" x="713.253784281753" y="378.0281690140845" width="2" height="14.460093896713614" style="opacity: 0;"></rect><text class="label" x="729.253784281753" y="387.2582159624413" style="opacity: 0;">current</text></g><g><rect class="bar maintenance" x="802.3756307136255" y="398.6854460093897" width="14.727212691353998" height="14.460093896713614"></rect><rect class="bar-join maintenance" x="801.3756307136255" y="398.6854460093897" width="2" height="14.460093896713614" style="opacity: 1;"></rect><text class="label" x="817.3756307136255" y="407.9154929577465" style="opacity: 0;">maintenance</text></g><g><rect class="bar current" x="758.1939926395634" y="398.6854460093897" width="44.18163807406211" height="14.460093896713614"></rect><rect class="bar-join current" x="757.1939926395634" y="398.6854460093897" width="2" height="14.460093896713614" style="opacity: 0;"></rect><text class="label" x="773.1939926395634" y="407.9154929577465" style="opacity: 0;">current</text></g><g><rect class="bar current" x="802.3756307136255" y="419.34272300469485" width="17.62436928637453" height="14.460093896713614"></rect><rect class="bar-join current" x="801.3756307136255" y="419.34272300469485" width="2" height="14.460093896713614" style="opacity: 0;"></rect><text class="label" x="817.3756307136255" y="428.57276995305165" style="opacity: 0;">current</text></g></g></svg>