<svg xmlns="http://www.w3.org/2000/svg" width="960" height="500"><defs><style type="text/css"><![CDATA[ 
.beta {
  fill:rgb(240, 240, 75);
}
.current {
  fill: #5fa04e;
}
.active {
  fill: #229ad6;
}
.maintenance {
  fill: #b1bcc2;
}
.unstable,.alpha {
  fill: #e99c40;
}
.bar-join {
  fill: #ffffff;
}
.bar-join.unstable, .bar-join.current {
  display: none;
}
.tick text {
  font: 16px sans-serif;
  fill: #89a19d;
}
.axis--y .tick text {
  text-anchor: end;
}
.label,.label-beta {
  fill: #fff;
  font: 20px sans-serif;
  font-weight: 100;
  text-anchor: start;
  dominant-baseline: middle;
  text-transform: uppercase;
}
.label-beta{
  fill: #000;
} ]]></style></defs><g id="bar-container" transform="translate(110, 30)"><g class="axis axis--x" fill="none" font-size="10" font-family="sans-serif" text-anchor="middle"><g class="tick" opacity="1" transform="translate(26.22572114537784,0)"><line stroke="#89a19d" y2="440" x1="0.5" x2="0.5"></line><text fill="#000" y="0" x="0.5" dy="-10">Jan26</text></g><g class="tick" opacity="1" transform="translate(114.36808171233255,0)"><line stroke="#89a19d" y2="440" x1="0.5" x2="0.5" stroke-dasharray="2,2"></line><text fill="#000" y="0" x="0.5" dy="-10">Jan27</text></g><g class="tick" opacity="1" transform="translate(202.51044227928728,0)"><line stroke="#89a19d" y2="440" x1="0.5" x2="0.5"></line><text fill="#000" y="0" x="0.5" dy="-10">Jan28</text></g><g class="tick" opacity="1" transform="translate(290.89428876560345,0)"><line stroke="#89a19d" y2="440" x1="0.5" x2="0.5" stroke-dasharray="2,2"></line><text fill="#000" y="0" x="0.5" dy="-10">Jan29</text></g><g class="tick" opacity="1" transform="translate(379.0366493325582,0)"><line stroke="#89a19d" y2="440" x1="0.5" x2="0.5"></line><text fill="#000" y="0" x="0.5" dy="-10">Jan30</text></g><g class="tick" opacity="1" transform="translate(467.1790098995129,0)"><line stroke="#89a19d" y2="440" x1="0.5" x2="0.5" stroke-dasharray="2,2"></line><text fill="#000" y="0" x="0.5" dy="-10">Jan31</text></g><g class="tick" opacity="1" transform="translate(555.3213704664677,0)"><line stroke="#89a19d" y2="440" x1="0.5" x2="0.5"></line><text fill="#000" y="0" x="0.5" dy="-10">Jan32</text></g><g class="tick" opacity="1" transform="translate(643.7052169527839,0)"><line stroke="#89a19d" y2="440" x1="0.5" x2="0.5" stroke-dasharray="2,2"></line><text fill="#000" y="0" x="0.5" dy="-10">Jan33</text></g><g class="tick" opacity="1" transform="translate(731.8475775197386,0)"><line stroke="#89a19d" y2="440" x1="0.5" x2="0.5"></line><text fill="#000" y="0" x="0.5" dy="-10">Jan34</text></g><g class="tick" opacity="1" transform="translate(819.9899380866932,0)"><line stroke="#89a19d" y2="440" x1="0.5" x2="0.5" stroke-dasharray="2,2"></line><text fill="#000" y="0" x="0.5" dy="-10">Jan35</text></g></g><g class="axis axis--y" fill="none" font-size="10" font-family="sans-serif" text-anchor="start"><g class="tick" opacity="1" transform="translate(0,18.692810457516337)"><line stroke="#e1e7e7" x2="820" y1="0.5" y2="0.5"></line><text fill="#000" x="0" y="0.5" dy="0.32em" dx="-10">Main</text></g><g class="tick" opacity="1" transform="translate(0,47.45098039215686)"><line stroke="#e1e7e7" x2="820" y1="0.5" y2="0.5"></line><text fill="#000" x="0" y="0.5" dy="0.32em" dx="-10">Node.js 24</text></g><g class="tick" opacity="1" transform="translate(0,76.20915032679738)"><line stroke="#e1e7e7" x2="820" y1="0.5" y2="0.5"></line><text fill="#000" x="0" y="0.5" dy="0.32em" dx="-10">Node.js 25</text></g><g class="tick" opacity="1" transform="translate(0,104.96732026143792)"><line stroke="#e1e7e7" x2="820" y1="0.5" y2="0.5"></line><text fill="#000" x="0" y="0.5" dy="0.32em" dx="-10">Node.js 26</text></g><g class="tick" opacity="1" transform="translate(0,133.72549019607843)"><line stroke="#e1e7e7" x2="820" y1="0.5" y2="0.5"></line><text fill="#000" x="0" y="0.5" dy="0.32em" dx="-10">Node.js 27</text></g><g class="tick" opacity="1" transform="translate(0,162.48366013071896)"><line stroke="#e1e7e7" x2="820" y1="0.5" y2="0.5"></line><text fill="#000" x="0" y="0.5" dy="0.32em" dx="-10">Node.js 28</text></g><g class="tick" opacity="1" transform="translate(0,191.2418300653595)"><line stroke="#e1e7e7" x2="820" y1="0.5" y2="0.5"></line><text fill="#000" x="0" y="0.5" dy="0.32em" dx="-10">Node.js 29</text></g><g class="tick" opacity="1" transform="translate(0,220)"><line stroke="#e1e7e7" x2="820" y1="0.5" y2="0.5"></line><text fill="#000" x="0" y="0.5" dy="0.32em" dx="-10">Node.js 30</text></g><g class="tick" opacity="1" transform="translate(0,248.75816993464053)"><line stroke="#e1e7e7" x2="820" y1="0.5" y2="0.5"></line><text fill="#000" x="0" y="0.5" dy="0.32em" dx="-10">Node.js 31</text></g><g class="tick" opacity="1" transform="translate(0,277.516339869281)"><line stroke="#e1e7e7" x2="820" y1="0.5" y2="0.5"></line><text fill="#000" x="0" y="0.5" dy="0.32em" dx="-10">Node.js 32</text></g><g class="tick" opacity="1" transform="translate(0,306.27450980392155)"><line stroke="#e1e7e7" x2="820" y1="0.5" y2="0.5"></line><text fill="#000" x="0" y="0.5" dy="0.32em" dx="-10">Node.js 33</text></g><g class="tick" opacity="1" transform="translate(0,335.0326797385621)"><line stroke="#e1e7e7" x2="820" y1="0.5" y2="0.5"></line><text fill="#000" x="0" y="0.5" dy="0.32em" dx="-10">Node.js 34</text></g><g class="tick" opacity="1" transform="translate(0,363.7908496732026)"><line stroke="#e1e7e7" x2="820" y1="0.5" y2="0.5"></line><text fill="#000" x="0" y="0.5" dy="0.32em" dx="-10">Node.js 35</text></g><g class="tick" opacity="1" transform="translate(0,392.54901960784315)"><line stroke="#e1e7e7" x2="820" y1="0.5" y2="0.5"></line><text fill="#000" x="0" y="0.5" dy="0.32em" dx="-10">Node.js 36</text></g><g class="tick" opacity="1" transform="translate(0,421.3071895424836)"><line stroke="#e1e7e7" x2="820" y1="0.5" y2="0.5"></line><text fill="#000" x="0" y="0.5" dy="0.32em" dx="-10">Node.js 37</text></g><line y1="440" y2="440" x2="820" stroke="#89a19d"></line></g><g><rect class="bar unstable" x="0" y="8.627450980392155" width="820" height="20.130718954248366"></rect><rect class="bar-join unstable" x="-1" y="8.627450980392155" width="2" height="20.130718954248366" style="opacity: 0;"></rect><text class="label" x="15" y="20.692810457516337" style="opacity: 1;">unstable</text></g><g><rect class="bar maintenance" x="96.74967151224834" y="37.385620915032675" width="134.74914300372802" height="20.130718954248366"></rect><rect class="bar-join maintenance" x="95.74967151224834" y="37.385620915032675" width="2" height="20.130718954248366" style="opacity: 1;"></rect><text class="label" x="111.74967151224834" y="49.45098039215686" style="opacity: 0;">maintenance</text></g><g><rect class="bar active" x="10.539198300185788" y="37.385620915032675" width="86.21047321206255" height="20.130718954248366"></rect><rect class="bar-join active" x="9.539198300185788" y="37.385620915032675" width="2" height="20.130718954248366" style="opacity: 1;"></rect><text class="label" x="25.539198300185788" y="49.45098039215686" style="opacity: 1;">active</text></g><g><rect class="bar current" x="0" y="37.385620915032675" width="10.539198300185788" height="20.130718954248366"></rect><rect class="bar-join current" x="-1" y="37.385620915032675" width="2" height="20.130718954248366" style="opacity: 0;"></rect><text class="label" x="15" y="49.45098039215686" style="opacity: 0;">current</text></g><g><rect class="bar maintenance" x="47.969515801221355" y="66.1437908496732" width="14.730641081052703" height="20.130718954248366"></rect><rect class="bar-join maintenance" x="46.969515801221355" y="66.1437908496732" width="2" height="20.130718954248366" style="opacity: 1;"></rect><text class="label" x="62.969515801221355" y="78.20915032679738" style="opacity: 0;">maintenance</text></g><g><rect class="bar current" x="7.399881348486033" y="66.1437908496732" width="40.56963445273532" height="20.130718954248366"></rect><rect class="bar-join current" x="6.399881348486033" y="66.1437908496732" width="2" height="20.130718954248366" style="opacity: 0;"></rect><text class="label" x="22.399881348486034" y="78.20915032679738" style="opacity: 0;">current</text></g><g><rect class="bar maintenance" x="229.08395532236116" y="94.90196078431373" width="90.55721976056995" height="20.130718954248366"></rect><rect class="bar-join maintenance" x="228.08395532236116" y="94.90196078431373" width="2" height="20.130718954248366" style="opacity: 1;"></rect><text class="label" x="244.08395532236116" y="106.96732026143792" style="opacity: 0;">maintenance</text></g><g><rect class="bar active" x="96.74967151224834" y="94.90196078431373" width="132.33428381011282" height="20.130718954248366"></rect><rect class="bar-join active" x="95.74967151224834" y="94.90196078431373" width="2" height="20.130718954248366" style="opacity: 1;"></rect><text class="label" x="111.74967151224834" y="106.96732026143792" style="opacity: 1;">active</text></g><g><rect class="bar current" x="53.040720107813264" y="94.90196078431373" width="43.708951404435076" height="20.130718954248366"></rect><rect class="bar-join current" x="52.040720107813264" y="94.90196078431373" width="2" height="20.130718954248366" style="opacity: 0;"></rect><text class="label" x="68.04072010781326" y="106.96732026143792" style="opacity: 0;">current</text></g><g><rect class="bar maintenance" x="184.89203207920306" y="123.66013071895425" width="14.730641081052681" height="20.130718954248366"></rect><rect class="bar-join maintenance" x="183.89203207920306" y="123.66013071895425" width="2" height="20.130718954248366" style="opacity: 1;"></rect><text class="label" x="199.89203207920306" y="135.72549019607843" style="opacity: 0;">maintenance</text></g><g><rect class="bar current" x="96.74967151224834" y="123.66013071895425" width="88.14236056695472" height="20.130718954248366"></rect><rect class="bar-join current" x="95.74967151224834" y="123.66013071895425" width="2" height="20.130718954248366" style="opacity: 0;"></rect><text class="label" x="111.74967151224834" y="135.72549019607843" style="opacity: 0;">current</text></g><g><rect class="bar maintenance" x="361.418239132474" y="152.41830065359477" width="176.28472113390944" height="20.130718954248366"></rect><rect class="bar-join maintenance" x="360.418239132474" y="152.41830065359477" width="2" height="20.130718954248366" style="opacity: 1;"></rect><text class="label" x="376.418239132474" y="164.48366013071896" style="opacity: 1;">maintenance</text></g><g><rect class="bar active" x="229.08395532236116" y="152.41830065359477" width="132.33428381011285" height="20.130718954248366"></rect><rect class="bar-join active" x="228.08395532236116" y="152.41830065359477" width="2" height="20.130718954248366" style="opacity: 1;"></rect><text class="label" x="244.08395532236116" y="164.48366013071896" style="opacity: 1;">active</text></g><g><rect class="bar current" x="184.89203207920306" y="152.41830065359477" width="44.1919232431581" height="20.130718954248366"></rect><rect class="bar-join current" x="183.89203207920306" y="152.41830065359477" width="2" height="20.130718954248366" style="opacity: 0;"></rect><text class="label" x="199.89203207920306" y="164.48366013071896" style="opacity: 0;">current</text></g><g><rect class="bar maintenance" x="317.22631588931586" y="181.1764705882353" width="14.730641081052738" height="20.130718954248366"></rect><rect class="bar-join maintenance" x="316.22631588931586" y="181.1764705882353" width="2" height="20.130718954248366" style="opacity: 1;"></rect><text class="label" x="332.22631588931586" y="193.2418300653595" style="opacity: 0;">maintenance</text></g><g><rect class="bar current" x="229.08395532236116" y="181.1764705882353" width="88.1423605669547" height="20.130718954248366"></rect><rect class="bar-join current" x="228.08395532236116" y="181.1764705882353" width="2" height="20.130718954248366" style="opacity: 0;"></rect><text class="label" x="244.08395532236116" y="193.2418300653595" style="opacity: 0;">current</text></g><g><rect class="bar maintenance" x="493.5110370232253" y="209.9346405228758" width="176.52620705327092" height="20.130718954248366"></rect><rect class="bar-join maintenance" x="492.5110370232253" y="209.9346405228758" width="2" height="20.130718954248366" style="opacity: 1;"></rect><text class="label" x="508.5110370232253" y="222" style="opacity: 1;">maintenance</text></g><g><rect class="bar active" x="361.418239132474" y="209.9346405228758" width="132.09279789075129" height="20.130718954248366"></rect><rect class="bar-join active" x="360.418239132474" y="209.9346405228758" width="2" height="20.130718954248366" style="opacity: 1;"></rect><text class="label" x="376.418239132474" y="222" style="opacity: 1;">active</text></g><g><rect class="bar current" x="317.22631588931586" y="209.9346405228758" width="44.19192324315816" height="20.130718954248366"></rect><rect class="bar-join current" x="316.22631588931586" y="209.9346405228758" width="2" height="20.130718954248366" style="opacity: 0;"></rect><text class="label" x="332.22631588931586" y="222" style="opacity: 0;">current</text></g><g><rect class="bar maintenance" x="449.5605996994287" y="238.69281045751634" width="14.730641081052738" height="20.130718954248366"></rect><rect class="bar-join maintenance" x="448.5605996994287" y="238.69281045751634" width="2" height="20.130718954248366" style="opacity: 1;"></rect><text class="label" x="464.5605996994287" y="250.75816993464053" style="opacity: 0;">maintenance</text></g><g><rect class="bar current" x="361.418239132474" y="238.69281045751634" width="88.14236056695466" height="20.130718954248366"></rect><rect class="bar-join current" x="360.418239132474" y="238.69281045751634" width="2" height="20.130718954248366" style="opacity: 0;"></rect><text class="label" x="376.418239132474" y="250.75816993464053" style="opacity: 0;">current</text></g><g><rect class="bar maintenance" x="626.0868067526997" y="267.45098039215685" width="176.28472113390933" height="20.130718954248366"></rect><rect class="bar-join maintenance" x="625.0868067526997" y="267.45098039215685" width="2" height="20.130718954248366" style="opacity: 1;"></rect><text class="label" x="641.0868067526997" y="279.516339869281" style="opacity: 1;">maintenance</text></g><g><rect class="bar active" x="493.5110370232253" y="267.45098039215685" width="132.57576972947436" height="20.130718954248366"></rect><rect class="bar-join active" x="492.5110370232253" y="267.45098039215685" width="2" height="20.130718954248366" style="opacity: 1;"></rect><text class="label" x="508.5110370232253" y="279.516339869281" style="opacity: 1;">active</text></g><g><rect class="bar current" x="449.5605996994287" y="267.45098039215685" width="43.95043732379662" height="20.130718954248366"></rect><rect class="bar-join current" x="448.5605996994287" y="267.45098039215685" width="2" height="20.130718954248366" style="opacity: 0;"></rect><text class="label" x="464.5605996994287" y="279.516339869281" style="opacity: 0;">current</text></g><g><rect class="bar maintenance" x="581.8948835095415" y="296.2091503267974" width="14.730641081052681" height="20.130718954248366"></rect><rect class="bar-join maintenance" x="580.8948835095415" y="296.2091503267974" width="2" height="20.130718954248366" style="opacity: 1;"></rect><text class="label" x="596.8948835095415" y="308.27450980392155" style="opacity: 0;">maintenance</text></g><g><rect class="bar current" x="493.5110370232253" y="296.2091503267974" width="88.3838464863162" height="20.130718954248366"></rect><rect class="bar-join current" x="492.5110370232253" y="296.2091503267974" width="2" height="20.130718954248366" style="opacity: 0;"></rect><text class="label" x="508.5110370232253" y="308.27450980392155" style="opacity: 0;">current</text></g><g><rect class="bar maintenance" x="758.179604643451" y="324.9673202614379" width="61.82039535654906" height="20.130718954248366"></rect><rect class="bar-join maintenance" x="757.179604643451" y="324.9673202614379" width="2" height="20.130718954248366" style="opacity: 1;"></rect><text class="label" x="773.179604643451" y="337.0326797385621" style="opacity: 0;">maintenance</text></g><g><rect class="bar active" x="626.0868067526997" y="324.9673202614379" width="132.09279789075129" height="20.130718954248366"></rect><rect class="bar-join active" x="625.0868067526997" y="324.9673202614379" width="2" height="20.130718954248366" style="opacity: 1;"></rect><text class="label" x="641.0868067526997" y="337.0326797385621" style="opacity: 1;">active</text></g><g><rect class="bar current" x="581.8948835095415" y="324.9673202614379" width="44.19192324315816" height="20.130718954248366"></rect><rect class="bar-join current" x="580.8948835095415" y="324.9673202614379" width="2" height="20.130718954248366" style="opacity: 0;"></rect><text class="label" x="596.8948835095415" y="337.0326797385621" style="opacity: 0;">current</text></g><g><rect class="bar maintenance" x="714.2291673196544" y="353.72549019607845" width="14.730641081052681" height="20.130718954248366"></rect><rect class="bar-join maintenance" x="713.2291673196544" y="353.72549019607845" width="2" height="20.130718954248366" style="opacity: 1;"></rect><text class="label" x="729.2291673196544" y="365.7908496732026" style="opacity: 0;">maintenance</text></g><g><rect class="bar current" x="626.0868067526997" y="353.72549019607845" width="88.14236056695472" height="20.130718954248366"></rect><rect class="bar-join current" x="625.0868067526997" y="353.72549019607845" width="2" height="20.130718954248366" style="opacity: 0;"></rect><text class="label" x="641.0868067526997" y="365.7908496732026" style="opacity: 0;">current</text></g><g><rect class="bar active" x="758.179604643451" y="382.483660130719" width="61.82039535654906" height="20.130718954248366"></rect><rect class="bar-join active" x="757.179604643451" y="382.483660130719" width="2" height="20.130718954248366" style="opacity: 1;"></rect><text class="label" x="773.179604643451" y="394.54901960784315" style="opacity: 0;">active</text></g><g><rect class="bar current" x="714.2291673196544" y="382.483660130719" width="43.950437323796564" height="20.130718954248366"></rect><rect class="bar-join current" x="713.2291673196544" y="382.483660130719" width="2" height="20.130718954248366" style="opacity: 0;"></rect><text class="label" x="729.2291673196544" y="394.54901960784315" style="opacity: 0;">current</text></g><g><rect class="bar current" x="758.179604643451" y="411.24183006535947" width="61.82039535654906" height="20.130718954248366"></rect><rect class="bar-join current" x="757.179604643451" y="411.24183006535947" width="2" height="20.130718954248366" style="opacity: 0;"></rect><text class="label" x="773.179604643451" y="423.3071895424836" style="opacity: 0;">current</text></g></g></svg>