<svg xmlns="http://www.w3.org/2000/svg" width="960" height="500"><defs><style type="text/css"><![CDATA[ 
.beta {
  fill:rgb(240, 240, 75);
}
.current {
  fill: #5fa04e;
}
.active {
  fill: #229ad6;
}
.maintenance {
  fill: #b1bcc2;
}
.unstable,.alpha {
  fill: #e99c40;
}
.bar-join {
  fill: #ffffff;
}
.bar-join.unstable, .bar-join.current {
  display: none;
}
.tick text {
  font: 16px sans-serif;
  fill: #89a19d;
}
.axis--y .tick text {
  text-anchor: end;
}
.label,.label-beta {
  fill: #fff;
  font: 20px sans-serif;
  font-weight: 100;
  text-anchor: start;
  dominant-baseline: middle;
  text-transform: uppercase;
}
.label-beta{
  fill: #000;
} ]]></style></defs><g id="bar-container" transform="translate(110, 30)"><g class="axis axis--x" fill="none" font-size="10" font-family="sans-serif" text-anchor="middle"><g class="tick" opacity="1" transform="translate(26.226002848119837,0)"><line stroke="#89a19d" y2="440" x1="0.5" x2="0.5"></line><text fill="#000" y="0" x="0.5" dy="-10">Jan26</text></g><g class="tick" opacity="1" transform="translate(114.3683321342113,0)"><line stroke="#89a19d" y2="440" x1="0.5" x2="0.5" stroke-dasharray="2,2"></line><text fill="#000" y="0" x="0.5" dy="-10">Jan27</text></g><g class="tick" opacity="1" transform="translate(202.5106614203028,0)"><line stroke="#89a19d" y2="440" x1="0.5" x2="0.5"></line><text fill="#000" y="0" x="0.5" dy="-10">Jan28</text></g><g class="tick" opacity="1" transform="translate(290.8944765400548,0)"><line stroke="#89a19d" y2="440" x1="0.5" x2="0.5" stroke-dasharray="2,2"></line><text fill="#000" y="0" x="0.5" dy="-10">Jan29</text></g><g class="tick" opacity="1" transform="translate(379.03680582614624,0)"><line stroke="#89a19d" y2="440" x1="0.5" x2="0.5"></line><text fill="#000" y="0" x="0.5" dy="-10">Jan30</text></g><g class="tick" opacity="1" transform="translate(467.17913511223776,0)"><line stroke="#89a19d" y2="440" x1="0.5" x2="0.5" stroke-dasharray="2,2"></line><text fill="#000" y="0" x="0.5" dy="-10">Jan31</text></g><g class="tick" opacity="1" transform="translate(555.3214643983292,0)"><line stroke="#89a19d" y2="440" x1="0.5" x2="0.5"></line><text fill="#000" y="0" x="0.5" dy="-10">Jan32</text></g><g class="tick" opacity="1" transform="translate(643.7052795180812,0)"><line stroke="#89a19d" y2="440" x1="0.5" x2="0.5" stroke-dasharray="2,2"></line><text fill="#000" y="0" x="0.5" dy="-10">Jan33</text></g><g class="tick" opacity="1" transform="translate(731.8476088041728,0)"><line stroke="#89a19d" y2="440" x1="0.5" x2="0.5"></line><text fill="#000" y="0" x="0.5" dy="-10">Jan34</text></g><g class="tick" opacity="1" transform="translate(819.9899380902641,0)"><line stroke="#89a19d" y2="440" x1="0.5" x2="0.5" stroke-dasharray="2,2"></line><text fill="#000" y="0" x="0.5" dy="-10">Jan35</text></g></g><g class="axis axis--y" fill="none" font-size="10" font-family="sans-serif" text-anchor="start"><g class="tick" opacity="1" transform="translate(0,21.50375939849623)"><line stroke="#e1e7e7" x2="820" y1="0.5" y2="0.5"></line><text fill="#000" x="0" y="0.5" dy="0.32em" dx="-10">Main</text></g><g class="tick" opacity="1" transform="translate(0,54.586466165413526)"><line stroke="#e1e7e7" x2="820" y1="0.5" y2="0.5"></line><text fill="#000" x="0" y="0.5" dy="0.32em" dx="-10">Node.js 24</text></g><g class="tick" opacity="1" transform="translate(0,87.66917293233082)"><line stroke="#e1e7e7" x2="820" y1="0.5" y2="0.5"></line><text fill="#000" x="0" y="0.5" dy="0.32em" dx="-10">Node.js 25</text></g><g class="tick" opacity="1" transform="translate(0,120.75187969924812)"><line stroke="#e1e7e7" x2="820" y1="0.5" y2="0.5"></line><text fill="#000" x="0" y="0.5" dy="0.32em" dx="-10">Node.js 26</text></g><g class="tick" opacity="1" transform="translate(0,153.8345864661654)"><line stroke="#e1e7e7" x2="820" y1="0.5" y2="0.5"></line><text fill="#000" x="0" y="0.5" dy="0.32em" dx="-10">Node.js 27</text></g><g class="tick" opacity="1" transform="translate(0,186.9172932330827)"><line stroke="#e1e7e7" x2="820" y1="0.5" y2="0.5"></line><text fill="#000" x="0" y="0.5" dy="0.32em" dx="-10">Node.js 28</text></g><g class="tick" opacity="1" transform="translate(0,220)"><line stroke="#e1e7e7" x2="820" y1="0.5" y2="0.5"></line><text fill="#000" x="0" y="0.5" dy="0.32em" dx="-10">Node.js 29</text></g><g class="tick" opacity="1" transform="translate(0,253.0827067669173)"><line stroke="#e1e7e7" x2="820" y1="0.5" y2="0.5"></line><text fill="#000" x="0" y="0.5" dy="0.32em" dx="-10">Node.js 30</text></g><g class="tick" opacity="1" transform="translate(0,286.16541353383457)"><line stroke="#e1e7e7" x2="820" y1="0.5" y2="0.5"></line><text fill="#000" x="0" y="0.5" dy="0.32em" dx="-10">Node.js 31</text></g><g class="tick" opacity="1" transform="translate(0,319.2481203007519)"><line stroke="#e1e7e7" x2="820" y1="0.5" y2="0.5"></line><text fill="#000" x="0" y="0.5" dy="0.32em" dx="-10">Node.js 32</text></g><g class="tick" opacity="1" transform="translate(0,352.33082706766913)"><line stroke="#e1e7e7" x2="820" y1="0.5" y2="0.5"></line><text fill="#000" x="0" y="0.5" dy="0.32em" dx="-10">Node.js 33</text></g><g class="tick" opacity="1" transform="translate(0,385.4135338345865)"><line stroke="#e1e7e7" x2="820" y1="0.5" y2="0.5"></line><text fill="#000" x="0" y="0.5" dy="0.32em" dx="-10">Node.js 34</text></g><g class="tick" opacity="1" transform="translate(0,418.4962406015038)"><line stroke="#e1e7e7" x2="820" y1="0.5" y2="0.5"></line><text fill="#000" x="0" y="0.5" dy="0.32em" dx="-10">Node.js 35</text></g><line y1="440" y2="440" x2="820" stroke="#89a19d"></line></g><g><rect class="bar unstable" x="0" y="9.924812030075174" width="820" height="23.157894736842106"></rect><rect class="bar-join unstable" x="-1" y="9.924812030075174" width="2" height="23.157894736842106" style="opacity: 0;"></rect><text class="label" x="15" y="23.50375939849623" style="opacity: 1;">unstable</text></g><g><rect class="bar maintenance" x="96.74992818672887" y="43.00751879699247" width="134.74909518257272" height="23.157894736842106"></rect><rect class="bar-join maintenance" x="95.74992818672887" y="43.00751879699247" width="2" height="23.157894736842106" style="opacity: 1;"></rect><text class="label" x="111.74992818672887" y="56.586466165413526" style="opacity: 0;">maintenance</text></g><g><rect class="bar active" x="10.539485569921592" y="43.00751879699247" width="86.21044261680727" height="23.157894736842106"></rect><rect class="bar-join active" x="9.539485569921592" y="43.00751879699247" width="2" height="23.157894736842106" style="opacity: 1;"></rect><text class="label" x="25.53948556992159" y="56.586466165413526" style="opacity: 1;">active</text></g><g><rect class="bar current" x="0" y="43.00751879699247" width="10.539485569921592" height="23.157894736842106"></rect><rect class="bar-join current" x="-1" y="43.00751879699247" width="2" height="23.157894736842106" style="opacity: 0;"></rect><text class="label" x="15" y="56.586466165413526" style="opacity: 0;">current</text></g><g><rect class="bar maintenance" x="47.9697897873029" y="76.09022556390977" width="14.730635853292007" height="23.157894736842106"></rect><rect class="bar-join maintenance" x="46.9697897873029" y="76.09022556390977" width="2" height="23.157894736842106" style="opacity: 1;"></rect><text class="label" x="62.9697897873029" y="89.66917293233082" style="opacity: 0;">maintenance</text></g><g><rect class="bar current" x="7.400169732334772" y="76.09022556390977" width="40.56962005496813" height="23.157894736842106"></rect><rect class="bar-join current" x="6.400169732334772" y="76.09022556390977" width="2" height="23.157894736842106" style="opacity: 0;"></rect><text class="label" x="22.400169732334774" y="89.66917293233082" style="opacity: 0;">current</text></g><g><rect class="bar maintenance" x="229.08416503269632" y="109.17293233082707" width="90.55718762269674" height="23.157894736842106"></rect><rect class="bar-join maintenance" x="228.08416503269632" y="109.17293233082707" width="2" height="23.157894736842106" style="opacity: 1;"></rect><text class="label" x="244.08416503269632" y="122.75187969924812" style="opacity: 0;">maintenance</text></g><g><rect class="bar active" x="96.74992818672887" y="109.17293233082707" width="132.33423684596744" height="23.157894736842106"></rect><rect class="bar-join active" x="95.74992818672887" y="109.17293233082707" width="2" height="23.157894736842106" style="opacity: 1;"></rect><text class="label" x="111.74992818672887" y="122.75187969924812" style="opacity: 1;">active</text></g><g><rect class="bar current" x="53.040992294173925" y="109.17293233082707" width="43.70893589255494" height="23.157894736842106"></rect><rect class="bar-join current" x="52.040992294173925" y="109.17293233082707" width="2" height="23.157894736842106" style="opacity: 0;"></rect><text class="label" x="68.04099229417392" y="122.75187969924812" style="opacity: 0;">current</text></g><g><rect class="bar maintenance" x="273.27607259257235" y="142.25563909774436" width="132.09275101230696" height="23.157894736842106"></rect><rect class="bar-join maintenance" x="272.27607259257235" y="142.25563909774436" width="2" height="23.157894736842106" style="opacity: 1;"></rect><text class="label" x="288.27607259257235" y="155.8345864661654" style="opacity: 0;">maintenance</text></g><g><rect class="bar active" x="184.89225747282032" y="142.25563909774436" width="88.38381511975203" height="23.157894736842106"></rect><rect class="bar-join active" x="183.89225747282032" y="142.25563909774436" width="2" height="23.157894736842106" style="opacity: 1;"></rect><text class="label" x="199.89225747282032" y="155.8345864661654" style="opacity: 1;">active</text></g><g><rect class="bar current" x="140.70034991294435" y="142.25563909774436" width="44.19190755987597" height="23.157894736842106"></rect><rect class="bar-join current" x="139.70034991294435" y="142.25563909774436" width="2" height="23.157894736842106" style="opacity: 0;"></rect><text class="label" x="155.70034991294435" y="155.8345864661654" style="opacity: 0;">current</text></g><g><rect class="bar beta" x="133.2142890694681" y="142.25563909774436" width="7.486060843476253" height="23.157894736842106"></rect><rect class="bar-join beta" x="132.2142890694681" y="142.25563909774436" width="2" height="23.157894736842106" style="opacity: 1;"></rect><text class="label-beta" x="148.2142890694681" y="155.8345864661654" style="opacity: 0;">beta</text></g><g><rect class="bar alpha" x="96.74992818672887" y="142.25563909774436" width="36.46436088273923" height="23.157894736842106"></rect><rect class="bar-join alpha" x="95.74992818672887" y="142.25563909774436" width="2" height="23.157894736842106" style="opacity: 0;"></rect><text class="label" x="111.74992818672887" y="155.8345864661654" style="opacity: 0;">alpha</text></g><g><rect class="bar maintenance" x="361.4184018786638" y="175.33834586466165" width="132.0927510123069" height="23.157894736842106"></rect><rect class="bar-join maintenance" x="360.4184018786638" y="175.33834586466165" width="2" height="23.157894736842106" style="opacity: 1;"></rect><text class="label" x="376.4184018786638" y="188.9172932330827" style="opacity: 0;">maintenance</text></g><g><rect class="bar active" x="273.27607259257235" y="175.33834586466165" width="88.14232928609147" height="23.157894736842106"></rect><rect class="bar-join active" x="272.27607259257235" y="175.33834586466165" width="2" height="23.157894736842106" style="opacity: 1;"></rect><text class="label" x="288.27607259257235" y="188.9172932330827" style="opacity: 1;">active</text></g><g><rect class="bar current" x="229.08416503269632" y="175.33834586466165" width="44.19190755987603" height="23.157894736842106"></rect><rect class="bar-join current" x="228.08416503269632" y="175.33834586466165" width="2" height="23.157894736842106" style="opacity: 0;"></rect><text class="label" x="244.08416503269632" y="188.9172932330827" style="opacity: 0;">current</text></g><g><rect class="bar beta" x="221.59810418922007" y="175.33834586466165" width="7.486060843476253" height="23.157894736842106"></rect><rect class="bar-join beta" x="220.59810418922007" y="175.33834586466165" width="2" height="23.157894736842106" style="opacity: 1;"></rect><text class="label-beta" x="236.59810418922007" y="188.9172932330827" style="opacity: 0;">beta</text></g><g><rect class="bar alpha" x="184.89225747282032" y="175.33834586466165" width="36.70584671639975" height="23.157894736842106"></rect><rect class="bar-join alpha" x="183.89225747282032" y="175.33834586466165" width="2" height="23.157894736842106" style="opacity: 0;"></rect><text class="label" x="199.89225747282032" y="188.9172932330827" style="opacity: 0;">alpha</text></g><g><rect class="bar maintenance" x="449.5607311647553" y="208.42105263157896" width="132.3342368459675" height="23.157894736842106"></rect><rect class="bar-join maintenance" x="448.5607311647553" y="208.42105263157896" width="2" height="23.157894736842106" style="opacity: 1;"></rect><text class="label" x="464.5607311647553" y="222" style="opacity: 0;">maintenance</text></g><g><rect class="bar active" x="361.4184018786638" y="208.42105263157896" width="88.14232928609147" height="23.157894736842106"></rect><rect class="bar-join active" x="360.4184018786638" y="208.42105263157896" width="2" height="23.157894736842106" style="opacity: 1;"></rect><text class="label" x="376.4184018786638" y="222" style="opacity: 1;">active</text></g><g><rect class="bar current" x="317.2264943187878" y="208.42105263157896" width="44.19190755987603" height="23.157894736842106"></rect><rect class="bar-join current" x="316.2264943187878" y="208.42105263157896" width="2" height="23.157894736842106" style="opacity: 0;"></rect><text class="label" x="332.2264943187878" y="222" style="opacity: 0;">current</text></g><g><rect class="bar beta" x="309.74043347531153" y="208.42105263157896" width="7.486060843476253" height="23.157894736842106"></rect><rect class="bar-join beta" x="308.74043347531153" y="208.42105263157896" width="2" height="23.157894736842106" style="opacity: 1;"></rect><text class="label-beta" x="324.74043347531153" y="222" style="opacity: 0;">beta</text></g><g><rect class="bar alpha" x="273.27607259257235" y="208.42105263157896" width="36.464360882739186" height="23.157894736842106"></rect><rect class="bar-join alpha" x="272.27607259257235" y="208.42105263157896" width="2" height="23.157894736842106" style="opacity: 0;"></rect><text class="label" x="288.27607259257235" y="222" style="opacity: 0;">alpha</text></g><g><rect class="bar maintenance" x="537.7030604508467" y="241.50375939849627" width="132.33423684596755" height="23.157894736842106"></rect><rect class="bar-join maintenance" x="536.7030604508467" y="241.50375939849627" width="2" height="23.157894736842106" style="opacity: 1;"></rect><text class="label" x="552.7030604508467" y="255.0827067669173" style="opacity: 0;">maintenance</text></g><g><rect class="bar active" x="449.5607311647553" y="241.50375939849627" width="88.14232928609141" height="23.157894736842106"></rect><rect class="bar-join active" x="448.5607311647553" y="241.50375939849627" width="2" height="23.157894736842106" style="opacity: 1;"></rect><text class="label" x="464.5607311647553" y="255.0827067669173" style="opacity: 1;">active</text></g><g><rect class="bar current" x="405.3688236048793" y="241.50375939849627" width="44.19190755987597" height="23.157894736842106"></rect><rect class="bar-join current" x="404.3688236048793" y="241.50375939849627" width="2" height="23.157894736842106" style="opacity: 0;"></rect><text class="label" x="420.3688236048793" y="255.0827067669173" style="opacity: 0;">current</text></g><g><rect class="bar beta" x="397.88276276140306" y="241.50375939849627" width="7.486060843476253" height="23.157894736842106"></rect><rect class="bar-join beta" x="396.88276276140306" y="241.50375939849627" width="2" height="23.157894736842106" style="opacity: 1;"></rect><text class="label-beta" x="412.88276276140306" y="255.0827067669173" style="opacity: 0;">beta</text></g><g><rect class="bar alpha" x="361.4184018786638" y="241.50375939849627" width="36.46436088273924" height="23.157894736842106"></rect><rect class="bar-join alpha" x="360.4184018786638" y="241.50375939849627" width="2" height="23.157894736842106" style="opacity: 0;"></rect><text class="label" x="376.4184018786638" y="255.0827067669173" style="opacity: 0;">alpha</text></g><g><rect class="bar maintenance" x="626.0868755705987" y="274.5864661654135" width="132.09275101230696" height="23.157894736842106"></rect><rect class="bar-join maintenance" x="625.0868755705987" y="274.5864661654135" width="2" height="23.157894736842106" style="opacity: 1;"></rect><text class="label" x="641.0868755705987" y="288.16541353383457" style="opacity: 0;">maintenance</text></g><g><rect class="bar active" x="537.7030604508467" y="274.5864661654135" width="88.38381511975206" height="23.157894736842106"></rect><rect class="bar-join active" x="536.7030604508467" y="274.5864661654135" width="2" height="23.157894736842106" style="opacity: 1;"></rect><text class="label" x="552.7030604508467" y="288.16541353383457" style="opacity: 1;">active</text></g><g><rect class="bar current" x="493.5111528909707" y="274.5864661654135" width="44.19190755987597" height="23.157894736842106"></rect><rect class="bar-join current" x="492.5111528909707" y="274.5864661654135" width="2" height="23.157894736842106" style="opacity: 0;"></rect><text class="label" x="508.5111528909707" y="288.16541353383457" style="opacity: 0;">current</text></g><g><rect class="bar beta" x="486.02509204749447" y="274.5864661654135" width="7.486060843476253" height="23.157894736842106"></rect><rect class="bar-join beta" x="485.02509204749447" y="274.5864661654135" width="2" height="23.157894736842106" style="opacity: 1;"></rect><text class="label-beta" x="501.02509204749447" y="288.16541353383457" style="opacity: 0;">beta</text></g><g><rect class="bar alpha" x="449.5607311647553" y="274.5864661654135" width="36.464360882739186" height="23.157894736842106"></rect><rect class="bar-join alpha" x="448.5607311647553" y="274.5864661654135" width="2" height="23.157894736842106" style="opacity: 0;"></rect><text class="label" x="464.5607311647553" y="288.16541353383457" style="opacity: 0;">alpha</text></g><g><rect class="bar maintenance" x="714.2292048566902" y="307.66917293233087" width="105.77079514330978" height="23.157894736842106"></rect><rect class="bar-join maintenance" x="713.2292048566902" y="307.66917293233087" width="2" height="23.157894736842106" style="opacity: 1;"></rect><text class="label" x="729.2292048566902" y="321.2481203007519" style="opacity: 0;">maintenance</text></g><g><rect class="bar active" x="626.0868755705987" y="307.66917293233087" width="88.14232928609147" height="23.157894736842106"></rect><rect class="bar-join active" x="625.0868755705987" y="307.66917293233087" width="2" height="23.157894736842106" style="opacity: 1;"></rect><text class="label" x="641.0868755705987" y="321.2481203007519" style="opacity: 1;">active</text></g><g><rect class="bar current" x="581.8949680107228" y="307.66917293233087" width="44.19190755987597" height="23.157894736842106"></rect><rect class="bar-join current" x="580.8949680107228" y="307.66917293233087" width="2" height="23.157894736842106" style="opacity: 0;"></rect><text class="label" x="596.8949680107228" y="321.2481203007519" style="opacity: 0;">current</text></g><g><rect class="bar beta" x="574.4089071672464" y="307.66917293233087" width="7.486060843476366" height="23.157894736842106"></rect><rect class="bar-join beta" x="573.4089071672464" y="307.66917293233087" width="2" height="23.157894736842106" style="opacity: 1;"></rect><text class="label-beta" x="589.4089071672464" y="321.2481203007519" style="opacity: 0;">beta</text></g><g><rect class="bar alpha" x="537.7030604508467" y="307.66917293233087" width="36.70584671639972" height="23.157894736842106"></rect><rect class="bar-join alpha" x="536.7030604508467" y="307.66917293233087" width="2" height="23.157894736842106" style="opacity: 0;"></rect><text class="label" x="552.7030604508467" y="321.2481203007519" style="opacity: 0;">alpha</text></g><g><rect class="bar maintenance" x="802.3715341427817" y="340.7518796992481" width="17.628465857218316" height="23.157894736842106"></rect><rect class="bar-join maintenance" x="801.3715341427817" y="340.7518796992481" width="2" height="23.157894736842106" style="opacity: 1;"></rect><text class="label" x="817.3715341427817" y="354.33082706766913" style="opacity: 0;">maintenance</text></g><g><rect class="bar active" x="714.2292048566902" y="340.7518796992481" width="88.14232928609147" height="23.157894736842106"></rect><rect class="bar-join active" x="713.2292048566902" y="340.7518796992481" width="2" height="23.157894736842106" style="opacity: 1;"></rect><text class="label" x="729.2292048566902" y="354.33082706766913" style="opacity: 1;">active</text></g><g><rect class="bar current" x="670.0372972968142" y="340.7518796992481" width="44.19190755987597" height="23.157894736842106"></rect><rect class="bar-join current" x="669.0372972968142" y="340.7518796992481" width="2" height="23.157894736842106" style="opacity: 0;"></rect><text class="label" x="685.0372972968142" y="354.33082706766913" style="opacity: 0;">current</text></g><g><rect class="bar beta" x="662.551236453338" y="340.7518796992481" width="7.486060843476253" height="23.157894736842106"></rect><rect class="bar-join beta" x="661.551236453338" y="340.7518796992481" width="2" height="23.157894736842106" style="opacity: 1;"></rect><text class="label-beta" x="677.551236453338" y="354.33082706766913" style="opacity: 0;">beta</text></g><g><rect class="bar alpha" x="626.0868755705987" y="340.7518796992481" width="36.46436088273924" height="23.157894736842106"></rect><rect class="bar-join alpha" x="625.0868755705987" y="340.7518796992481" width="2" height="23.157894736842106" style="opacity: 0;"></rect><text class="label" x="641.0868755705987" y="354.33082706766913" style="opacity: 0;">alpha</text></g><g><rect class="bar active" x="802.3715341427817" y="373.83458646616543" width="17.628465857218316" height="23.157894736842106"></rect><rect class="bar-join active" x="801.3715341427817" y="373.83458646616543" width="2" height="23.157894736842106" style="opacity: 1;"></rect><text class="label" x="817.3715341427817" y="387.4135338345865" style="opacity: 0;">active</text></g><g><rect class="bar current" x="758.1796265829057" y="373.83458646616543" width="44.19190755987597" height="23.157894736842106"></rect><rect class="bar-join current" x="757.1796265829057" y="373.83458646616543" width="2" height="23.157894736842106" style="opacity: 0;"></rect><text class="label" x="773.1796265829057" y="387.4135338345865" style="opacity: 0;">current</text></g><g><rect class="bar beta" x="750.6935657394295" y="373.83458646616543" width="7.486060843476253" height="23.157894736842106"></rect><rect class="bar-join beta" x="749.6935657394295" y="373.83458646616543" width="2" height="23.157894736842106" style="opacity: 1;"></rect><text class="label-beta" x="765.6935657394295" y="387.4135338345865" style="opacity: 0;">beta</text></g><g><rect class="bar alpha" x="714.2292048566902" y="373.83458646616543" width="36.46436088273924" height="23.157894736842106"></rect><rect class="bar-join alpha" x="713.2292048566902" y="373.83458646616543" width="2" height="23.157894736842106" style="opacity: 0;"></rect><text class="label" x="729.2292048566902" y="387.4135338345865" style="opacity: 0;">alpha</text></g><g><rect class="bar beta" x="820" y="406.9172932330828" width="0" height="23.157894736842106"></rect><rect class="bar-join beta" x="819" y="406.9172932330828" width="2" height="23.157894736842106" style="opacity: 1;"></rect><text class="label-beta" x="835" y="420.4962406015038" style="opacity: 0;">beta</text></g><g><rect class="bar alpha" x="802.3715341427817" y="406.9172932330828" width="17.628465857218316" height="23.157894736842106"></rect><rect class="bar-join alpha" x="801.3715341427817" y="406.9172932330828" width="2" height="23.157894736842106" style="opacity: 0;"></rect><text class="label" x="817.3715341427817" y="420.4962406015038" style="opacity: 0;">alpha</text></g></g></svg>