<svg xmlns="http://www.w3.org/2000/svg" width="960" height="500"><defs><style type="text/css"><![CDATA[ 
.beta {
  fill:rgb(240, 240, 75);
}
.current {
  fill: #5fa04e;
}
.active {
  fill: #229ad6;
}
.maintenance {
  fill: #b1bcc2;
}
.unstable,.alpha {
  fill: #e99c40;
}
.bar-join {
  fill: #ffffff;
}
.bar-join.unstable, .bar-join.current {
  display: none;
}
.tick text {
  font: 16px sans-serif;
  fill: #89a19d;
}
.axis--y .tick text {
  text-anchor: end;
}
.label,.label-beta {
  fill: #fff;
  font: 20px sans-serif;
  font-weight: 100;
  text-anchor: start;
  dominant-baseline: middle;
  text-transform: uppercase;
}
.label-beta{
  fill: #000;
} ]]></style></defs><g id="bar-container" transform="translate(110, 30)"><g class="axis axis--x" fill="none" font-size="10" font-family="sans-serif" text-anchor="middle"><g class="tick" opacity="1" transform="translate(26.224954855224862,0)"><line stroke="#89a19d" y2="440" x1="0.5" x2="0.5"></line><text fill="#000" y="0" x="0.5" dy="-10">Jan26</text></g><g class="tick" opacity="1" transform="translate(114.36740051264516,0)"><line stroke="#89a19d" y2="440" x1="0.5" x2="0.5" stroke-dasharray="2,2"></line><text fill="#000" y="0" x="0.5" dy="-10">Jan27</text></g><g class="tick" opacity="1" transform="translate(202.50984617006546,0)"><line stroke="#89a19d" y2="440" x1="0.5" x2="0.5"></line><text fill="#000" y="0" x="0.5" dy="-10">Jan28</text></g><g class="tick" opacity="1" transform="translate(290.89377797997184,0)"><line stroke="#89a19d" y2="440" x1="0.5" x2="0.5" stroke-dasharray="2,2"></line><text fill="#000" y="0" x="0.5" dy="-10">Jan29</text></g><g class="tick" opacity="1" transform="translate(379.03622363739214,0)"><line stroke="#89a19d" y2="440" x1="0.5" x2="0.5"></line><text fill="#000" y="0" x="0.5" dy="-10">Jan30</text></g><g class="tick" opacity="1" transform="translate(467.17866929481244,0)"><line stroke="#89a19d" y2="440" x1="0.5" x2="0.5" stroke-dasharray="2,2"></line><text fill="#000" y="0" x="0.5" dy="-10">Jan31</text></g><g class="tick" opacity="1" transform="translate(555.3211149522327,0)"><line stroke="#89a19d" y2="440" x1="0.5" x2="0.5"></line><text fill="#000" y="0" x="0.5" dy="-10">Jan32</text></g><g class="tick" opacity="1" transform="translate(643.7050467621391,0)"><line stroke="#89a19d" y2="440" x1="0.5" x2="0.5" stroke-dasharray="2,2"></line><text fill="#000" y="0" x="0.5" dy="-10">Jan33</text></g><g class="tick" opacity="1" transform="translate(731.8474924195594,0)"><line stroke="#89a19d" y2="440" x1="0.5" x2="0.5"></line><text fill="#000" y="0" x="0.5" dy="-10">Jan34</text></g><g class="tick" opacity="1" transform="translate(819.9899380769797,0)"><line stroke="#89a19d" y2="440" x1="0.5" x2="0.5" stroke-dasharray="2,2"></line><text fill="#000" y="0" x="0.5" dy="-10">Jan35</text></g></g><g class="axis axis--y" fill="none" font-size="10" font-family="sans-serif" text-anchor="start"><g class="tick" opacity="1" transform="translate(0,21.50375939849623)"><line stroke="#e1e7e7" x2="820" y1="0.5" y2="0.5"></line><text fill="#000" x="0" y="0.5" dy="0.32em" dx="-10">Main</text></g><g class="tick" opacity="1" transform="translate(0,54.586466165413526)"><line stroke="#e1e7e7" x2="820" y1="0.5" y2="0.5"></line><text fill="#000" x="0" y="0.5" dy="0.32em" dx="-10">Node.js 24</text></g><g class="tick" opacity="1" transform="translate(0,87.66917293233082)"><line stroke="#e1e7e7" x2="820" y1="0.5" y2="0.5"></line><text fill="#000" x="0" y="0.5" dy="0.32em" dx="-10">Node.js 25</text></g><g class="tick" opacity="1" transform="translate(0,120.75187969924812)"><line stroke="#e1e7e7" x2="820" y1="0.5" y2="0.5"></line><text fill="#000" x="0" y="0.5" dy="0.32em" dx="-10">Node.js 26</text></g><g class="tick" opacity="1" transform="translate(0,153.8345864661654)"><line stroke="#e1e7e7" x2="820" y1="0.5" y2="0.5"></line><text fill="#000" x="0" y="0.5" dy="0.32em" dx="-10">Node.js 27</text></g><g class="tick" opacity="1" transform="translate(0,186.9172932330827)"><line stroke="#e1e7e7" x2="820" y1="0.5" y2="0.5"></line><text fill="#000" x="0" y="0.5" dy="0.32em" dx="-10">Node.js 28</text></g><g class="tick" opacity="1" transform="translate(0,220)"><line stroke="#e1e7e7" x2="820" y1="0.5" y2="0.5"></line><text fill="#000" x="0" y="0.5" dy="0.32em" dx="-10">Node.js 29</text></g><g class="tick" opacity="1" transform="translate(0,253.0827067669173)"><line stroke="#e1e7e7" x2="820" y1="0.5" y2="0.5"></line><text fill="#000" x="0" y="0.5" dy="0.32em" dx="-10">Node.js 30</text></g><g class="tick" opacity="1" transform="translate(0,286.16541353383457)"><line stroke="#e1e7e7" x2="820" y1="0.5" y2="0.5"></line><text fill="#000" x="0" y="0.5" dy="0.32em" dx="-10">Node.js 31</text></g><g class="tick" opacity="1" transform="translate(0,319.2481203007519)"><line stroke="#e1e7e7" x2="820" y1="0.5" y2="0.5"></line><text fill="#000" x="0" y="0.5" dy="0.32em" dx="-10">Node.js 32</text></g><g class="tick" opacity="1" transform="translate(0,352.33082706766913)"><line stroke="#e1e7e7" x2="820" y1="0.5" y2="0.5"></line><text fill="#000" x="0" y="0.5" dy="0.32em" dx="-10">Node.js 33</text></g><g class="tick" opacity="1" transform="translate(0,385.4135338345865)"><line stroke="#e1e7e7" x2="820" y1="0.5" y2="0.5"></line><text fill="#000" x="0" y="0.5" dy="0.32em" dx="-10">Node.js 34</text></g><g class="tick" opacity="1" transform="translate(0,418.4962406015038)"><line stroke="#e1e7e7" x2="820" y1="0.5" y2="0.5"></line><text fill="#000" x="0" y="0.5" dy="0.32em" dx="-10">Node.js 35</text></g><line y1="440" y2="440" x2="820" stroke="#89a19d"></line></g><g><rect class="bar unstable" x="0" y="9.924812030075174" width="820" height="23.157894736842106"></rect><rect class="bar-join unstable" x="-1" y="9.924812030075174" width="2" height="23.157894736842106" style="opacity: 0;"></rect><text class="label" x="15" y="23.50375939849623" style="opacity: 1;">unstable</text></g><g><rect class="bar maintenance" x="96.74897330418135" y="43.00751879699247" width="134.74927308723437" height="23.157894736842106"></rect><rect class="bar-join maintenance" x="95.74897330418135" y="43.00751879699247" width="2" height="23.157894736842106" style="opacity: 1;"></rect><text class="label" x="111.74897330418135" y="56.586466165413526" style="opacity: 0;">maintenance</text></g><g><rect class="bar active" x="10.538416866649719" y="43.00751879699247" width="86.21055643753164" height="23.157894736842106"></rect><rect class="bar-join active" x="9.538416866649719" y="43.00751879699247" width="2" height="23.157894736842106" style="opacity: 1;"></rect><text class="label" x="25.53841686664972" y="56.586466165413526" style="opacity: 1;">active</text></g><g><rect class="bar current" x="0" y="43.00751879699247" width="10.538416866649719" height="23.157894736842106"></rect><rect class="bar-join current" x="-1" y="43.00751879699247" width="2" height="23.157894736842106" style="opacity: 0;"></rect><text class="label" x="15" y="56.586466165413526" style="opacity: 0;">current</text></g><g><rect class="bar maintenance" x="47.96877050199259" y="76.09022556390977" width="14.730655301651062" height="23.157894736842106"></rect><rect class="bar-join maintenance" x="46.96877050199259" y="76.09022556390977" width="2" height="23.157894736842106" style="opacity: 1;"></rect><text class="label" x="62.96877050199259" y="89.66917293233082" style="opacity: 0;">maintenance</text></g><g><rect class="bar current" x="7.39909688433064" y="76.09022556390977" width="40.56967361766195" height="23.157894736842106"></rect><rect class="bar-join current" x="6.39909688433064" y="76.09022556390977" width="2" height="23.157894736842106" style="opacity: 0;"></rect><text class="label" x="22.39909688433064" y="89.66917293233082" style="opacity: 0;">current</text></g><g><rect class="bar maintenance" x="229.08338486655487" y="109.17293233082707" width="90.55730718228108" height="23.157894736842106"></rect><rect class="bar-join maintenance" x="228.08338486655487" y="109.17293233082707" width="2" height="23.157894736842106" style="opacity: 1;"></rect><text class="label" x="244.08338486655487" y="122.75187969924812" style="opacity: 0;">maintenance</text></g><g><rect class="bar active" x="96.74897330418135" y="109.17293233082707" width="132.33441156237353" height="23.157894736842106"></rect><rect class="bar-join active" x="95.74897330418135" y="109.17293233082707" width="2" height="23.157894736842106" style="opacity: 1;"></rect><text class="label" x="111.74897330418135" y="122.75187969924812" style="opacity: 1;">active</text></g><g><rect class="bar current" x="53.03997970420033" y="109.17293233082707" width="43.70899359998102" height="23.157894736842106"></rect><rect class="bar-join current" x="52.03997970420033" y="109.17293233082707" width="2" height="23.157894736842106" style="opacity: 0;"></rect><text class="label" x="68.03997970420033" y="122.75187969924812" style="opacity: 0;">current</text></g><g><rect class="bar maintenance" x="184.89141896160166" y="142.25563909774436" width="176.52637746732668" height="23.157894736842106"></rect><rect class="bar-join maintenance" x="183.89141896160166" y="142.25563909774436" width="2" height="23.157894736842106" style="opacity: 1;"></rect><text class="label" x="199.89141896160166" y="155.8345864661654" style="opacity: 1;">maintenance</text></g><g><rect class="bar current" x="96.74897330418135" y="142.25563909774436" width="88.14244565742031" height="23.157894736842106"></rect><rect class="bar-join current" x="95.74897330418135" y="142.25563909774436" width="2" height="23.157894736842106" style="opacity: 0;"></rect><text class="label" x="111.74897330418135" y="155.8345864661654" style="opacity: 0;">current</text></g><g><rect class="bar maintenance" x="273.27535077150804" y="175.33834586466165" width="176.2848913148406" height="23.157894736842106"></rect><rect class="bar-join maintenance" x="272.27535077150804" y="175.33834586466165" width="2" height="23.157894736842106" style="opacity: 1;"></rect><text class="label" x="288.27535077150804" y="188.9172932330827" style="opacity: 1;">maintenance</text></g><g><rect class="bar current" x="184.89141896160166" y="175.33834586466165" width="88.38393180990639" height="23.157894736842106"></rect><rect class="bar-join current" x="183.89141896160166" y="175.33834586466165" width="2" height="23.157894736842106" style="opacity: 0;"></rect><text class="label" x="199.89141896160166" y="188.9172932330827" style="opacity: 0;">current</text></g><g><rect class="bar maintenance" x="361.41779642892834" y="208.42105263157896" width="176.2848913148406" height="23.157894736842106"></rect><rect class="bar-join maintenance" x="360.41779642892834" y="208.42105263157896" width="2" height="23.157894736842106" style="opacity: 1;"></rect><text class="label" x="376.41779642892834" y="222" style="opacity: 1;">maintenance</text></g><g><rect class="bar current" x="273.27535077150804" y="208.42105263157896" width="88.1424456574203" height="23.157894736842106"></rect><rect class="bar-join current" x="272.27535077150804" y="208.42105263157896" width="2" height="23.157894736842106" style="opacity: 0;"></rect><text class="label" x="288.27535077150804" y="222" style="opacity: 0;">current</text></g><g><rect class="bar maintenance" x="449.56024208634864" y="241.50375939849627" width="176.52637746732665" height="23.157894736842106"></rect><rect class="bar-join maintenance" x="448.56024208634864" y="241.50375939849627" width="2" height="23.157894736842106" style="opacity: 1;"></rect><text class="label" x="464.56024208634864" y="255.0827067669173" style="opacity: 1;">maintenance</text></g><g><rect class="bar current" x="361.41779642892834" y="241.50375939849627" width="88.1424456574203" height="23.157894736842106"></rect><rect class="bar-join current" x="360.41779642892834" y="241.50375939849627" width="2" height="23.157894736842106" style="opacity: 0;"></rect><text class="label" x="376.41779642892834" y="255.0827067669173" style="opacity: 0;">current</text></g><g><rect class="bar maintenance" x="537.7026877437689" y="274.5864661654135" width="176.5263774673267" height="23.157894736842106"></rect><rect class="bar-join maintenance" x="536.7026877437689" y="274.5864661654135" width="2" height="23.157894736842106" style="opacity: 1;"></rect><text class="label" x="552.7026877437689" y="288.16541353383457" style="opacity: 1;">maintenance</text></g><g><rect class="bar current" x="449.56024208634864" y="274.5864661654135" width="88.1424456574203" height="23.157894736842106"></rect><rect class="bar-join current" x="448.56024208634864" y="274.5864661654135" width="2" height="23.157894736842106" style="opacity: 0;"></rect><text class="label" x="464.56024208634864" y="288.16541353383457" style="opacity: 0;">current</text></g><g><rect class="bar maintenance" x="626.0866195536753" y="307.66917293233087" width="176.2848913148407" height="23.157894736842106"></rect><rect class="bar-join maintenance" x="625.0866195536753" y="307.66917293233087" width="2" height="23.157894736842106" style="opacity: 1;"></rect><text class="label" x="641.0866195536753" y="321.2481203007519" style="opacity: 1;">maintenance</text></g><g><rect class="bar current" x="537.7026877437689" y="307.66917293233087" width="88.38393180990636" height="23.157894736842106"></rect><rect class="bar-join current" x="536.7026877437689" y="307.66917293233087" width="2" height="23.157894736842106" style="opacity: 0;"></rect><text class="label" x="552.7026877437689" y="321.2481203007519" style="opacity: 0;">current</text></g><g><rect class="bar maintenance" x="714.2290652110956" y="340.7518796992481" width="105.77093478890436" height="23.157894736842106"></rect><rect class="bar-join maintenance" x="713.2290652110956" y="340.7518796992481" width="2" height="23.157894736842106" style="opacity: 1;"></rect><text class="label" x="729.2290652110956" y="354.33082706766913" style="opacity: 0;">maintenance</text></g><g><rect class="bar current" x="626.0866195536753" y="340.7518796992481" width="88.14244565742035" height="23.157894736842106"></rect><rect class="bar-join current" x="625.0866195536753" y="340.7518796992481" width="2" height="23.157894736842106" style="opacity: 0;"></rect><text class="label" x="641.0866195536753" y="354.33082706766913" style="opacity: 0;">current</text></g><g><rect class="bar maintenance" x="802.371510868516" y="373.83458646616543" width="17.628489131484002" height="23.157894736842106"></rect><rect class="bar-join maintenance" x="801.371510868516" y="373.83458646616543" width="2" height="23.157894736842106" style="opacity: 1;"></rect><text class="label" x="817.371510868516" y="387.4135338345865" style="opacity: 0;">maintenance</text></g><g><rect class="bar current" x="714.2290652110956" y="373.83458646616543" width="88.14244565742035" height="23.157894736842106"></rect><rect class="bar-join current" x="713.2290652110956" y="373.83458646616543" width="2" height="23.157894736842106" style="opacity: 0;"></rect><text class="label" x="729.2290652110956" y="387.4135338345865" style="opacity: 0;">current</text></g><g><rect class="bar current" x="802.371510868516" y="406.9172932330828" width="17.628489131484002" height="23.157894736842106"></rect><rect class="bar-join current" x="801.371510868516" y="406.9172932330828" width="2" height="23.157894736842106" style="opacity: 0;"></rect><text class="label" x="817.371510868516" y="420.4962406015038" style="opacity: 0;">current</text></g></g></svg>