<svg xmlns="http://www.w3.org/2000/svg" width="960" height="500"><defs><style type="text/css"><![CDATA[ 
.beta {
  fill:rgb(240, 240, 75);
}
.current {
  fill: #5fa04e;
}
.active {
  fill: #229ad6;
}
.maintenance {
  fill: #b1bcc2;
}
.unstable,.alpha {
  fill: #e99c40;
}
.bar-join {
  fill: #ffffff;
}
.bar-join.unstable, .bar-join.current {
  display: none;
}
.tick text {
  font: 16px sans-serif;
  fill: #89a19d;
}
.axis--y .tick text {
  text-anchor: end;
}
.label,.label-beta {
  fill: #fff;
  font: 20px sans-serif;
  font-weight: 100;
  text-anchor: start;
  dominant-baseline: middle;
  text-transform: uppercase;
}
.label-beta{
  fill: #000;
} ]]></style></defs><g id="bar-container" transform="translate(110, 30)"><g class="axis axis--x" fill="none" font-size="10" font-family="sans-serif" text-anchor="middle"><g class="tick" opacity="1" transform="translate(40.414607358594175,0)"><line stroke="#89a19d" y2="440" x1="0.5" x2="0.5"></line><text fill="#000" y="0" x="0.5" dy="-10">Oct29</text></g><g class="tick" opacity="1" transform="translate(164.75425590334982,0)"><line stroke="#89a19d" y2="440" x1="0.5" x2="0.5" stroke-dasharray="2,2"></line><text fill="#000" y="0" x="0.5" dy="-10">Jan30</text></g><g class="tick" opacity="1" transform="translate(286.279516749039,0)"><line stroke="#89a19d" y2="440" x1="0.5" x2="0.5"></line><text fill="#000" y="0" x="0.5" dy="-10">Apr30</text></g><g class="tick" opacity="1" transform="translate(409.2119714442614,0)"><line stroke="#89a19d" y2="440" x1="0.5" x2="0.5" stroke-dasharray="2,2"></line><text fill="#000" y="0" x="0.5" dy="-10">Jul30</text></g><g class="tick" opacity="1" transform="translate(533.4953322350357,0)"><line stroke="#89a19d" y2="440" x1="0.5" x2="0.5"></line><text fill="#000" y="0" x="0.5" dy="-10">Oct30</text></g><g class="tick" opacity="1" transform="translate(657.8349807797913,0)"><line stroke="#89a19d" y2="440" x1="0.5" x2="0.5" stroke-dasharray="2,2"></line><text fill="#000" y="0" x="0.5" dy="-10">Jan31</text></g><g class="tick" opacity="1" transform="translate(779.3602416254805,0)"><line stroke="#89a19d" y2="440" x1="0.5" x2="0.5"></line><text fill="#000" y="0" x="0.5" dy="-10">Apr31</text></g></g><g class="axis axis--y" fill="none" font-size="10" font-family="sans-serif" text-anchor="start"><g class="tick" opacity="1" transform="translate(0,14.088669950738911)"><line stroke="#e1e7e7" x2="820" y1="0.5" y2="0.5"></line><text fill="#000" x="0" y="0.5" dy="0.32em" dx="-10">Main</text></g><g class="tick" opacity="1" transform="translate(0,35.76354679802955)"><line stroke="#e1e7e7" x2="820" y1="0.5" y2="0.5"></line><text fill="#000" x="0" y="0.5" dy="0.32em" dx="-10">Node.js 35</text></g><g class="tick" opacity="1" transform="translate(0,57.43842364532019)"><line stroke="#e1e7e7" x2="820" y1="0.5" y2="0.5"></line><text fill="#000" x="0" y="0.5" dy="0.32em" dx="-10">Node.js 44</text></g><g class="tick" opacity="1" transform="translate(0,79.11330049261083)"><line stroke="#e1e7e7" x2="820" y1="0.5" y2="0.5"></line><text fill="#000" x="0" y="0.5" dy="0.32em" dx="-10">Node.js 50</text></g><g class="tick" opacity="1" transform="translate(0,100.78817733990148)"><line stroke="#e1e7e7" x2="820" y1="0.5" y2="0.5"></line><text fill="#000" x="0" y="0.5" dy="0.32em" dx="-10">Node.js 51</text></g><g class="tick" opacity="1" transform="translate(0,122.46305418719213)"><line stroke="#e1e7e7" x2="820" y1="0.5" y2="0.5"></line><text fill="#000" x="0" y="0.5" dy="0.32em" dx="-10">Node.js 52</text></g><g class="tick" opacity="1" transform="translate(0,144.13793103448273)"><line stroke="#e1e7e7" x2="820" y1="0.5" y2="0.5"></line><text fill="#000" x="0" y="0.5" dy="0.32em" dx="-10">Node.js 53</text></g><g class="tick" opacity="1" transform="translate(0,165.81280788177338)"><line stroke="#e1e7e7" x2="820" y1="0.5" y2="0.5"></line><text fill="#000" x="0" y="0.5" dy="0.32em" dx="-10">Node.js 54</text></g><g class="tick" opacity="1" transform="translate(0,187.48768472906403)"><line stroke="#e1e7e7" x2="820" y1="0.5" y2="0.5"></line><text fill="#000" x="0" y="0.5" dy="0.32em" dx="-10">Node.js 55</text></g><g class="tick" opacity="1" transform="translate(0,209.16256157635468)"><line stroke="#e1e7e7" x2="820" y1="0.5" y2="0.5"></line><text fill="#000" x="0" y="0.5" dy="0.32em" dx="-10">Node.js 56</text></g><g class="tick" opacity="1" transform="translate(0,230.83743842364532)"><line stroke="#e1e7e7" x2="820" y1="0.5" y2="0.5"></line><text fill="#000" x="0" y="0.5" dy="0.32em" dx="-10">Node.js 57</text></g><g class="tick" opacity="1" transform="translate(0,252.51231527093594)"><line stroke="#e1e7e7" x2="820" y1="0.5" y2="0.5"></line><text fill="#000" x="0" y="0.5" dy="0.32em" dx="-10">Node.js 58</text></g><g class="tick" opacity="1" transform="translate(0,274.18719211822656)"><line stroke="#e1e7e7" x2="820" y1="0.5" y2="0.5"></line><text fill="#000" x="0" y="0.5" dy="0.32em" dx="-10">Node.js 59</text></g><g class="tick" opacity="1" transform="translate(0,295.8620689655172)"><line stroke="#e1e7e7" x2="820" y1="0.5" y2="0.5"></line><text fill="#000" x="0" y="0.5" dy="0.32em" dx="-10">Node.js 60</text></g><g class="tick" opacity="1" transform="translate(0,317.53694581280786)"><line stroke="#e1e7e7" x2="820" y1="0.5" y2="0.5"></line><text fill="#000" x="0" y="0.5" dy="0.32em" dx="-10">Node.js 61</text></g><g class="tick" opacity="1" transform="translate(0,339.2118226600985)"><line stroke="#e1e7e7" x2="820" y1="0.5" y2="0.5"></line><text fill="#000" x="0" y="0.5" dy="0.32em" dx="-10">Node.js 62</text></g><g class="tick" opacity="1" transform="translate(0,360.88669950738915)"><line stroke="#e1e7e7" x2="820" y1="0.5" y2="0.5"></line><text fill="#000" x="0" y="0.5" dy="0.32em" dx="-10">Node.js 63</text></g><g class="tick" opacity="1" transform="translate(0,382.5615763546798)"><line stroke="#e1e7e7" x2="820" y1="0.5" y2="0.5"></line><text fill="#000" x="0" y="0.5" dy="0.32em" dx="-10">Node.js 64</text></g><g class="tick" opacity="1" transform="translate(0,404.23645320197045)"><line stroke="#e1e7e7" x2="820" y1="0.5" y2="0.5"></line><text fill="#000" x="0" y="0.5" dy="0.32em" dx="-10">Node.js 65</text></g><g class="tick" opacity="1" transform="translate(0,425.9113300492611)"><line stroke="#e1e7e7" x2="820" y1="0.5" y2="0.5"></line><text fill="#000" x="0" y="0.5" dy="0.32em" dx="-10">Node.js 66</text></g><line y1="440" y2="440" x2="820" stroke="#89a19d"></line></g><g><rect class="bar unstable" x="0" y="6.502463054187189" width="820" height="15.172413793103447"></rect><rect class="bar-join unstable" x="-1" y="6.502463054187189" width="2" height="15.172413793103447" style="opacity: 0;"></rect><text class="label" x="15" y="16.08866995073891" style="opacity: 1;">unstable</text></g><g><rect class="bar maintenance" x="0" y="28.17733990147783" width="328.2701812191104" height="15.172413793103447"></rect><rect class="bar-join maintenance" x="-1" y="28.17733990147783" width="2" height="15.172413793103447" style="opacity: 0;"></rect><text class="label" x="15" y="37.76354679802955" style="opacity: 1;">maintenance</text></g><g><rect class="bar maintenance" x="99.9670510708402" y="49.85221674876847" width="720.0329489291598" height="15.172413793103447"></rect><rect class="bar-join maintenance" x="98.9670510708402" y="49.85221674876847" width="2" height="15.172413793103447" style="opacity: 1;"></rect><text class="label" x="114.9670510708402" y="59.43842364532019" style="opacity: 1;">maintenance</text></g><g><rect class="bar active" x="0" y="49.85221674876847" width="99.9670510708402" height="15.172413793103447"></rect><rect class="bar-join active" x="-1" y="49.85221674876847" width="2" height="15.172413793103447" style="opacity: 0;"></rect><text class="label" x="15" y="59.43842364532019" style="opacity: 1;">active</text></g><g><rect class="bar maintenance" x="0" y="71.5270935960591" width="22.96540362438221" height="15.172413793103447"></rect><rect class="bar-join maintenance" x="-1" y="71.5270935960591" width="2" height="15.172413793103447" style="opacity: 0;"></rect><text class="label" x="15" y="81.11330049261083" style="opacity: 0;">maintenance</text></g><g><rect class="bar maintenance" x="4.052718286655684" y="93.20197044334975" width="75.65074135090609" height="15.172413793103447"></rect><rect class="bar-join maintenance" x="3.0527182866556837" y="93.20197044334975" width="2" height="15.172413793103447" style="opacity: 1;"></rect><text class="label" x="19.052718286655683" y="102.78817733990148" style="opacity: 0;">maintenance</text></g><g><rect class="bar current" x="0" y="93.20197044334975" width="4.052718286655684" height="15.172413793103447"></rect><rect class="bar-join current" x="-1" y="93.20197044334975" width="2" height="15.172413793103447" style="opacity: 0;"></rect><text class="label" x="15" y="102.78817733990148" style="opacity: 0;">current</text></g><g><rect class="bar maintenance" x="60.79077429983525" y="114.8768472906404" width="75.65074135090609" height="15.172413793103447"></rect><rect class="bar-join maintenance" x="59.79077429983525" y="114.8768472906404" width="2" height="15.172413793103447" style="opacity: 1;"></rect><text class="label" x="75.79077429983525" y="124.46305418719213" style="opacity: 0;">maintenance</text></g><g><rect class="bar current" x="4.052718286655684" y="114.8768472906404" width="56.738056013179566" height="15.172413793103447"></rect><rect class="bar-join current" x="3.0527182866556837" y="114.8768472906404" width="2" height="15.172413793103447" style="opacity: 0;"></rect><text class="label" x="19.052718286655683" y="124.46305418719213" style="opacity: 0;">current</text></g><g><rect class="bar maintenance" x="610.6095551894564" y="136.55172413793102" width="209.3904448105436" height="15.172413793103447"></rect><rect class="bar-join maintenance" x="609.6095551894564" y="136.55172413793102" width="2" height="15.172413793103447" style="opacity: 1;"></rect><text class="label" x="625.6095551894564" y="146.13793103448273" style="opacity: 1;">maintenance</text></g><g><rect class="bar active" x="117.52883031301482" y="136.55172413793102" width="493.08072487644154" height="15.172413793103447"></rect><rect class="bar-join active" x="116.52883031301482" y="136.55172413793102" width="2" height="15.172413793103447" style="opacity: 1;"></rect><text class="label" x="132.52883031301482" y="146.13793103448273" style="opacity: 1;">active</text></g><g><rect class="bar current" x="60.79077429983525" y="136.55172413793102" width="56.73805601317957" height="15.172413793103447"></rect><rect class="bar-join current" x="59.79077429983525" y="136.55172413793102" width="2" height="15.172413793103447" style="opacity: 0;"></rect><text class="label" x="75.79077429983525" y="146.13793103448273" style="opacity: 0;">current</text></g><g><rect class="bar maintenance" x="174.2668863261944" y="158.22660098522167" width="75.65074135090612" height="15.172413793103447"></rect><rect class="bar-join maintenance" x="173.2668863261944" y="158.22660098522167" width="2" height="15.172413793103447" style="opacity: 1;"></rect><text class="label" x="189.2668863261944" y="167.81280788177338" style="opacity: 0;">maintenance</text></g><g><rect class="bar current" x="117.52883031301482" y="158.22660098522167" width="56.73805601317957" height="15.172413793103447"></rect><rect class="bar-join current" x="116.52883031301482" y="158.22660098522167" width="2" height="15.172413793103447" style="opacity: 0;"></rect><text class="label" x="132.52883031301482" y="167.81280788177338" style="opacity: 0;">current</text></g><g><rect class="bar maintenance" x="231.00494233937397" y="179.9014778325123" width="75.65074135090609" height="15.172413793103447"></rect><rect class="bar-join maintenance" x="230.00494233937397" y="179.9014778325123" width="2" height="15.172413793103447" style="opacity: 1;"></rect><text class="label" x="246.00494233937397" y="189.48768472906403" style="opacity: 0;">maintenance</text></g><g><rect class="bar current" x="174.2668863261944" y="179.9014778325123" width="56.73805601317957" height="15.172413793103447"></rect><rect class="bar-join current" x="173.2668863261944" y="179.9014778325123" width="2" height="15.172413793103447" style="opacity: 0;"></rect><text class="label" x="189.2668863261944" y="189.48768472906403" style="opacity: 0;">current</text></g><g><rect class="bar maintenance" x="287.7429983525535" y="201.57635467980296" width="75.65074135090612" height="15.172413793103447"></rect><rect class="bar-join maintenance" x="286.7429983525535" y="201.57635467980296" width="2" height="15.172413793103447" style="opacity: 1;"></rect><text class="label" x="302.7429983525535" y="211.16256157635468" style="opacity: 0;">maintenance</text></g><g><rect class="bar current" x="231.00494233937397" y="201.57635467980296" width="56.738056013179545" height="15.172413793103447"></rect><rect class="bar-join current" x="230.00494233937397" y="201.57635467980296" width="2" height="15.172413793103447" style="opacity: 0;"></rect><text class="label" x="246.00494233937397" y="211.16256157635468" style="opacity: 0;">current</text></g><g><rect class="bar maintenance" x="344.4810543657331" y="223.2512315270936" width="75.65074135090612" height="15.172413793103447"></rect><rect class="bar-join maintenance" x="343.4810543657331" y="223.2512315270936" width="2" height="15.172413793103447" style="opacity: 1;"></rect><text class="label" x="359.4810543657331" y="232.83743842364532" style="opacity: 0;">maintenance</text></g><g><rect class="bar current" x="287.7429983525535" y="223.2512315270936" width="56.73805601317957" height="15.172413793103447"></rect><rect class="bar-join current" x="286.7429983525535" y="223.2512315270936" width="2" height="15.172413793103447" style="opacity: 0;"></rect><text class="label" x="302.7429983525535" y="232.83743842364532" style="opacity: 0;">current</text></g><g><rect class="bar maintenance" x="401.2191103789127" y="244.92610837438423" width="75.65074135090612" height="15.172413793103447"></rect><rect class="bar-join maintenance" x="400.2191103789127" y="244.92610837438423" width="2" height="15.172413793103447" style="opacity: 1;"></rect><text class="label" x="416.2191103789127" y="254.51231527093594" style="opacity: 0;">maintenance</text></g><g><rect class="bar current" x="344.4810543657331" y="244.92610837438423" width="56.73805601317963" height="15.172413793103447"></rect><rect class="bar-join current" x="343.4810543657331" y="244.92610837438423" width="2" height="15.172413793103447" style="opacity: 0;"></rect><text class="label" x="359.4810543657331" y="254.51231527093594" style="opacity: 0;">current</text></g><g><rect class="bar maintenance" x="457.95716639209223" y="266.6009852216748" width="75.65074135090612" height="15.172413793103447"></rect><rect class="bar-join maintenance" x="456.95716639209223" y="266.6009852216748" width="2" height="15.172413793103447" style="opacity: 1;"></rect><text class="label" x="472.95716639209223" y="276.18719211822656" style="opacity: 0;">maintenance</text></g><g><rect class="bar current" x="401.2191103789127" y="266.6009852216748" width="56.738056013179516" height="15.172413793103447"></rect><rect class="bar-join current" x="400.2191103789127" y="266.6009852216748" width="2" height="15.172413793103447" style="opacity: 0;"></rect><text class="label" x="416.2191103789127" y="276.18719211822656" style="opacity: 0;">current</text></g><g><rect class="bar maintenance" x="514.6952224052718" y="288.27586206896547" width="75.65074135090617" height="15.172413793103447"></rect><rect class="bar-join maintenance" x="513.6952224052718" y="288.27586206896547" width="2" height="15.172413793103447" style="opacity: 1;"></rect><text class="label" x="529.6952224052718" y="297.8620689655172" style="opacity: 0;">maintenance</text></g><g><rect class="bar current" x="457.95716639209223" y="288.27586206896547" width="56.73805601317957" height="15.172413793103447"></rect><rect class="bar-join current" x="456.95716639209223" y="288.27586206896547" width="2" height="15.172413793103447" style="opacity: 0;"></rect><text class="label" x="472.95716639209223" y="297.8620689655172" style="opacity: 0;">current</text></g><g><rect class="bar maintenance" x="571.4332784184513" y="309.9507389162561" width="75.65074135090617" height="15.172413793103447"></rect><rect class="bar-join maintenance" x="570.4332784184513" y="309.9507389162561" width="2" height="15.172413793103447" style="opacity: 1;"></rect><text class="label" x="586.4332784184513" y="319.53694581280786" style="opacity: 0;">maintenance</text></g><g><rect class="bar current" x="514.6952224052718" y="309.9507389162561" width="56.738056013179516" height="15.172413793103447"></rect><rect class="bar-join current" x="513.6952224052718" y="309.9507389162561" width="2" height="15.172413793103447" style="opacity: 0;"></rect><text class="label" x="529.6952224052718" y="319.53694581280786" style="opacity: 0;">current</text></g><g><rect class="bar active" x="628.171334431631" y="331.62561576354676" width="191.82866556836905" height="15.172413793103447"></rect><rect class="bar-join active" x="627.171334431631" y="331.62561576354676" width="2" height="15.172413793103447" style="opacity: 1;"></rect><text class="label" x="643.171334431631" y="341.2118226600985" style="opacity: 1;">active</text></g><g><rect class="bar current" x="571.4332784184513" y="331.62561576354676" width="56.73805601317963" height="15.172413793103447"></rect><rect class="bar-join current" x="570.4332784184513" y="331.62561576354676" width="2" height="15.172413793103447" style="opacity: 0;"></rect><text class="label" x="586.4332784184513" y="341.2118226600985" style="opacity: 0;">current</text></g><g><rect class="bar maintenance" x="684.9093904448106" y="353.3004926108374" width="75.65074135090606" height="15.172413793103447"></rect><rect class="bar-join maintenance" x="683.9093904448106" y="353.3004926108374" width="2" height="15.172413793103447" style="opacity: 1;"></rect><text class="label" x="699.9093904448106" y="362.88669950738915" style="opacity: 0;">maintenance</text></g><g><rect class="bar current" x="628.171334431631" y="353.3004926108374" width="56.73805601317963" height="15.172413793103447"></rect><rect class="bar-join current" x="627.171334431631" y="353.3004926108374" width="2" height="15.172413793103447" style="opacity: 0;"></rect><text class="label" x="643.171334431631" y="362.88669950738915" style="opacity: 0;">current</text></g><g><rect class="bar maintenance" x="741.6474464579901" y="374.97536945812806" width="75.65074135090606" height="15.172413793103447"></rect><rect class="bar-join maintenance" x="740.6474464579901" y="374.97536945812806" width="2" height="15.172413793103447" style="opacity: 1;"></rect><text class="label" x="756.6474464579901" y="384.5615763546798" style="opacity: 0;">maintenance</text></g><g><rect class="bar current" x="684.9093904448106" y="374.97536945812806" width="56.738056013179516" height="15.172413793103447"></rect><rect class="bar-join current" x="683.9093904448106" y="374.97536945812806" width="2" height="15.172413793103447" style="opacity: 0;"></rect><text class="label" x="699.9093904448106" y="384.5615763546798" style="opacity: 0;">current</text></g><g><rect class="bar maintenance" x="798.3855024711697" y="396.6502463054187" width="21.61449752883027" height="15.172413793103447"></rect><rect class="bar-join maintenance" x="797.3855024711697" y="396.6502463054187" width="2" height="15.172413793103447" style="opacity: 1;"></rect><text class="label" x="813.3855024711697" y="406.23645320197045" style="opacity: 0;">maintenance</text></g><g><rect class="bar current" x="741.6474464579901" y="396.6502463054187" width="56.73805601317963" height="15.172413793103447"></rect><rect class="bar-join current" x="740.6474464579901" y="396.6502463054187" width="2" height="15.172413793103447" style="opacity: 0;"></rect><text class="label" x="756.6474464579901" y="406.23645320197045" style="opacity: 0;">current</text></g><g><rect class="bar current" x="798.3855024711697" y="418.32512315270935" width="21.61449752883027" height="15.172413793103447"></rect><rect class="bar-join current" x="797.3855024711697" y="418.32512315270935" width="2" height="15.172413793103447" style="opacity: 0;"></rect><text class="label" x="813.3855024711697" y="427.9113300492611" style="opacity: 0;">current</text></g></g></svg>