<svg xmlns="http://www.w3.org/2000/svg" width="960" height="500"><defs><style type="text/css"><![CDATA[ 
.beta {
  fill:rgb(240, 240, 75);
}
.current {
  fill: #5fa04e;
}
.active {
  fill: #229ad6;
}
.maintenance {
  fill: #b1bcc2;
}
.unstable,.alpha {
  fill: #e99c40;
}
.bar-join {
  fill: #ffffff;
}
.bar-join.unstable, .bar-join.current {
  display: none;
}
.tick text {
  font: 16px sans-serif;
  fill: #89a19d;
}
.axis--y .tick text {
  text-anchor: end;
}
.label,.label-beta {
  fill: #fff;
  font: 20px sans-serif;
  font-weight: 100;
  text-anchor: start;
  dominant-baseline: middle;
  text-transform: uppercase;
}
.label-beta{
  fill: #000;
} ]]></style></defs><g id="bar-container" transform="translate(110, 30)"><g class="axis axis--x" fill="none" font-size="10" font-family="sans-serif" text-anchor="middle"><g class="tick" opacity="1" transform="translate(40.414607358594175,0)"><line stroke="#89a19d" y2="440" x1="0.5" x2="0.5"></line><text fill="#000" y="0" x="0.5" dy="-10">Oct29</text></g><g class="tick" opacity="1" transform="translate(164.75425590334982,0)"><line stroke="#89a19d" y2="440" x1="0.5" x2="0.5" stroke-dasharray="2,2"></line><text fill="#000" y="0" x="0.5" dy="-10">Jan30</text></g><g class="tick" opacity="1" transform="translate(286.279516749039,0)"><line stroke="#89a19d" y2="440" x1="0.5" x2="0.5"></line><text fill="#000" y="0" x="0.5" dy="-10">Apr30</text></g><g class="tick" opacity="1" transform="translate(409.2119714442614,0)"><line stroke="#89a19d" y2="440" x1="0.5" x2="0.5" stroke-dasharray="2,2"></line><text fill="#000" y="0" x="0.5" dy="-10">Jul30</text></g><g class="tick" opacity="1" transform="translate(533.4953322350357,0)"><line stroke="#89a19d" y2="440" x1="0.5" x2="0.5"></line><text fill="#000" y="0" x="0.5" dy="-10">Oct30</text></g><g class="tick" opacity="1" transform="translate(657.8349807797913,0)"><line stroke="#89a19d" y2="440" x1="0.5" x2="0.5" stroke-dasharray="2,2"></line><text fill="#000" y="0" x="0.5" dy="-10">Jan31</text></g><g class="tick" opacity="1" transform="translate(779.3602416254805,0)"><line stroke="#89a19d" y2="440" x1="0.5" x2="0.5"></line><text fill="#000" y="0" x="0.5" dy="-10">Apr31</text></g></g><g class="axis axis--y" fill="none" font-size="10" font-family="sans-serif" text-anchor="start"><g class="tick" opacity="1" transform="translate(0,34.457831325301214)"><line stroke="#e1e7e7" x2="820" y1="0.5" y2="0.5"></line><text fill="#000" x="0" y="0.5" dy="0.32em" dx="-10">Main</text></g><g class="tick" opacity="1" transform="translate(0,87.4698795180723)"><line stroke="#e1e7e7" x2="820" y1="0.5" y2="0.5"></line><text fill="#000" x="0" y="0.5" dy="0.32em" dx="-10">Node.js 28</text></g><g class="tick" opacity="1" transform="translate(0,140.4819277108434)"><line stroke="#e1e7e7" x2="820" y1="0.5" y2="0.5"></line><text fill="#000" x="0" y="0.5" dy="0.32em" dx="-10">Node.js 30</text></g><g class="tick" opacity="1" transform="translate(0,193.49397590361446)"><line stroke="#e1e7e7" x2="820" y1="0.5" y2="0.5"></line><text fill="#000" x="0" y="0.5" dy="0.32em" dx="-10">Node.js 32</text></g><g class="tick" opacity="1" transform="translate(0,246.50602409638554)"><line stroke="#e1e7e7" x2="820" y1="0.5" y2="0.5"></line><text fill="#000" x="0" y="0.5" dy="0.32em" dx="-10">Node.js 33</text></g><g class="tick" opacity="1" transform="translate(0,299.51807228915663)"><line stroke="#e1e7e7" x2="820" y1="0.5" y2="0.5"></line><text fill="#000" x="0" y="0.5" dy="0.32em" dx="-10">Node.js 34</text></g><g class="tick" opacity="1" transform="translate(0,352.5301204819277)"><line stroke="#e1e7e7" x2="820" y1="0.5" y2="0.5"></line><text fill="#000" x="0" y="0.5" dy="0.32em" dx="-10">Node.js 35</text></g><g class="tick" opacity="1" transform="translate(0,405.5421686746988)"><line stroke="#e1e7e7" x2="820" y1="0.5" y2="0.5"></line><text fill="#000" x="0" y="0.5" dy="0.32em" dx="-10">Node.js 36</text></g><line y1="440" y2="440" x2="820" stroke="#89a19d"></line></g><g><rect class="bar unstable" x="0" y="15.903614457831338" width="820" height="37.10843373493976"></rect><rect class="bar-join unstable" x="-1" y="15.903614457831338" width="2" height="37.10843373493976" style="opacity: 0;"></rect><text class="label" x="15" y="36.457831325301214" style="opacity: 1;">unstable</text></g><g><rect class="bar maintenance" x="0" y="68.91566265060243" width="559.2751235584843" height="37.10843373493976"></rect><rect class="bar-join maintenance" x="-1" y="68.91566265060243" width="2" height="37.10843373493976" style="opacity: 0;"></rect><text class="label" x="15" y="89.4698795180723" style="opacity: 1;">maintenance</text></g><g><rect class="bar maintenance" x="66.19439868204283" y="121.9277108433735" width="753.8056013179572" height="37.10843373493976"></rect><rect class="bar-join maintenance" x="65.19439868204283" y="121.9277108433735" width="2" height="37.10843373493976" style="opacity: 1;"></rect><text class="label" x="81.19439868204283" y="142.4819277108434" style="opacity: 1;">maintenance</text></g><g><rect class="bar active" x="0" y="121.9277108433735" width="66.19439868204283" height="37.10843373493976"></rect><rect class="bar-join active" x="-1" y="121.9277108433735" width="2" height="37.10843373493976" style="opacity: 0;"></rect><text class="label" x="15" y="142.4819277108434" style="opacity: 0;">active</text></g><g><rect class="bar maintenance" x="559.2751235584843" y="174.93975903614458" width="260.7248764415157" height="37.10843373493976"></rect><rect class="bar-join maintenance" x="558.2751235584843" y="174.93975903614458" width="2" height="37.10843373493976" style="opacity: 1;"></rect><text class="label" x="574.2751235584843" y="195.49397590361446" style="opacity: 1;">maintenance</text></g><g><rect class="bar active" x="66.19439868204283" y="174.93975903614458" width="493.0807248764415" height="37.10843373493976"></rect><rect class="bar-join active" x="65.19439868204283" y="174.93975903614458" width="2" height="37.10843373493976" style="opacity: 1;"></rect><text class="label" x="81.19439868204283" y="195.49397590361446" style="opacity: 1;">active</text></g><g><rect class="bar current" x="0" y="174.93975903614458" width="66.19439868204283" height="37.10843373493976"></rect><rect class="bar-join current" x="-1" y="174.93975903614458" width="2" height="37.10843373493976" style="opacity: 0;"></rect><text class="label" x="15" y="195.49397590361446" style="opacity: 0;">current</text></g><g><rect class="bar maintenance" x="312.0593080724876" y="227.95180722891567" width="122.93245469522248" height="37.10843373493976"></rect><rect class="bar-join maintenance" x="311.0593080724876" y="227.95180722891567" width="2" height="37.10843373493976" style="opacity: 1;"></rect><text class="label" x="327.0593080724876" y="248.50602409638554" style="opacity: 0;">maintenance</text></g><g><rect class="bar current" x="66.19439868204283" y="227.95180722891567" width="245.86490939044478" height="37.10843373493976"></rect><rect class="bar-join current" x="65.19439868204283" y="227.95180722891567" width="2" height="37.10843373493976" style="opacity: 0;"></rect><text class="label" x="81.19439868204283" y="248.50602409638554" style="opacity: 1;">current</text></g><g><rect class="bar active" x="559.2751235584843" y="280.96385542168673" width="260.7248764415157" height="37.10843373493976"></rect><rect class="bar-join active" x="558.2751235584843" y="280.96385542168673" width="2" height="37.10843373493976" style="opacity: 1;"></rect><text class="label" x="574.2751235584843" y="301.51807228915663" style="opacity: 1;">active</text></g><g><rect class="bar current" x="312.0593080724876" y="280.96385542168673" width="247.2158154859967" height="37.10843373493976"></rect><rect class="bar-join current" x="311.0593080724876" y="280.96385542168673" width="2" height="37.10843373493976" style="opacity: 0;"></rect><text class="label" x="327.0593080724876" y="301.51807228915663" style="opacity: 1;">current</text></g><g><rect class="bar maintenance" x="805.1400329489292" y="333.9759036144578" width="14.85996705107084" height="37.10843373493976"></rect><rect class="bar-join maintenance" x="804.1400329489292" y="333.9759036144578" width="2" height="37.10843373493976" style="opacity: 1;"></rect><text class="label" x="820.1400329489292" y="354.5301204819277" style="opacity: 0;">maintenance</text></g><g><rect class="bar current" x="559.2751235584843" y="333.9759036144578" width="245.86490939044484" height="37.10843373493976"></rect><rect class="bar-join current" x="558.2751235584843" y="333.9759036144578" width="2" height="37.10843373493976" style="opacity: 0;"></rect><text class="label" x="574.2751235584843" y="354.5301204819277" style="opacity: 1;">current</text></g><g><rect class="bar current" x="805.1400329489292" y="386.9879518072289" width="14.85996705107084" height="37.10843373493976"></rect><rect class="bar-join current" x="804.1400329489292" y="386.9879518072289" width="2" height="37.10843373493976" style="opacity: 0;"></rect><text class="label" x="820.1400329489292" y="407.5421686746988" style="opacity: 0;">current</text></g></g></svg>